<svg width="263" height="263" viewBox="0 0 263 263" fill="none" xmlns="http://www.w3.org/2000/svg">
<circle cx="131.5" cy="131.5" r="124.5" stroke="black" stroke-opacity="0.72" stroke-width="14"/>
<path d="M131.077 210.855C122.132 197.887 114.559 187.1 108.144 177.961C96.7542 161.737 89.0114 150.708 83.7126 141.897C79.659 135.157 77.2995 130.123 75.9071 125.421C74.5306 120.773 74 116.114 74 110C74 77.9674 99.9674 52 132 52C164.033 52 190 77.9674 190 110C190 116.114 189.469 120.773 188.093 125.421C186.701 130.123 184.341 135.157 180.287 141.897C174.989 150.708 167.246 161.737 155.856 177.961C149.441 187.1 141.868 197.887 132.923 210.854C132.478 211.493 131.522 211.493 131.077 210.855ZM132 144.083C150.824 144.083 166.083 128.824 166.083 110C166.083 91.1762 150.824 75.9167 132 75.9167C113.176 75.9167 97.9167 91.1762 97.9167 110C97.9167 128.824 113.176 144.083 132 144.083Z" stroke="black" stroke-opacity="0.72" stroke-width="14"/>
</svg>
