<?xml version="1.0" encoding="UTF-8"?>
<svg id="Layer_1" data-name="Layer 1" xmlns="http://www.w3.org/2000/svg" viewBox="0 0 500 500">
  <defs>
    <style>
      .cls-1 {
        fill: #ff40f0;
      }

      .cls-2 {
        fill: #480036;
      }
    </style>
  </defs>
  <g id="Xd">
    <rect class="cls-2" x="12.23" y="12.23" width="475.55" height="475.55" rx="90.04" ry="90.04"/>
    <g>
      <path class="cls-1" d="m193.58,243.78l59.67,96.89c1.18,1.48.3,2.66-1.18,2.95h-36.33c-2.36,0-3.54-.59-4.43-2.36-14.18-24.22-28.65-48.74-43.13-74.14h-.3c-13.29,24.81-27.18,49.92-41.06,74.14-.89,1.77-1.77,2.36-3.54,2.36h-34.56c-2.07,0-2.07-1.77-1.18-2.95l57.9-94.53-56.72-93.94c-.89-1.48,0-2.66,1.48-2.66h36.04c1.77,0,2.66.29,3.54,2.07,13,24.52,27.77,48.74,41.06,73.26h.3c13-24.52,26.88-48.74,40.47-72.96.59-1.48,1.48-2.36,3.54-2.36h33.08c1.77,0,2.07,1.18,1.18,2.95l-55.83,91.28Z"/>
      <path class="cls-1" d="m258.86,272.14c0-42.83,31.9-77.1,83.89-77.1,4.13,0,7.68.3,12.7.89v-60.56c0-1.48.59-2.07,1.77-2.07h32.2c1.48,0,1.48.59,1.48,1.77v178.42c0,5.91.59,13.59,1.18,18.91,0,1.48-.29,2.07-1.77,2.66-19.2,8.27-38.11,11.52-55.83,11.52-42.83,0-75.62-24.81-75.62-74.44Zm96.59-45.19c-3.84-1.48-8.57-2.07-13.88-2.07-26.29,0-46.08,16.84-46.08,45.49,0,32.2,19.2,45.49,42.83,45.49,5.91,0,11.82-.59,17.13-2.36v-86.55Z"/>
    </g>
  </g>
</svg>