<svg width="31" height="31" viewBox="0 0 31 31" fill="none" xmlns="http://www.w3.org/2000/svg">
<path d="M20.8075 15.0872L29.3362 6.55846C30.3827 5.51187 30.3827 3.815 29.3362 2.76756L27.4407 0.872101C26.3941 -0.17449 24.6972 -0.17449 23.6498 0.872101L15.1211 9.40079L6.5924 0.872101C5.54581 -0.17449 3.84893 -0.17449 2.80149 0.872101L0.906037 2.76756C-0.140554 3.81415 -0.140554 5.51102 0.906037 6.55846L9.43473 15.0872L0.906037 23.6159C-0.140554 24.6624 -0.140554 26.3593 0.906037 27.4068L2.80149 29.3022C3.84808 30.3488 5.54581 30.3488 6.5924 29.3022L15.1211 20.7735L23.6498 29.3022C24.6964 30.3488 26.3941 30.3488 27.4407 29.3022L29.3362 27.4068C30.3827 26.3602 30.3827 24.6633 29.3362 23.6159L20.8075 15.0872Z" fill="#444444"/>
</svg>
