<svg width="263" height="263" viewBox="0 0 263 263" fill="none" xmlns="http://www.w3.org/2000/svg">
<circle cx="131.5" cy="131.5" r="124.5" stroke="black" stroke-opacity="0.72" stroke-width="14"/>
<path d="M202.722 162.995L169.909 148.933C168.507 148.335 166.95 148.209 165.47 148.574C163.991 148.938 162.67 149.774 161.706 150.954L147.174 168.708C124.369 157.956 106.015 139.602 95.2624 116.796L113.017 102.265C114.199 101.303 115.036 99.9818 115.401 98.5016C115.766 97.0215 115.638 95.4627 115.038 94.0615L100.975 61.2484C100.317 59.7378 99.1512 58.5045 97.6804 57.7611C96.2097 57.0177 94.5256 56.8108 92.9186 57.1761L62.4493 64.2074C60.9 64.5652 59.5177 65.4376 58.528 66.6821C57.5383 67.9267 56.9996 69.47 57 71.0601C57 146.208 117.909 207 192.94 207C194.53 207.001 196.074 206.463 197.32 205.473C198.565 204.483 199.438 203.1 199.795 201.551L206.827 171.081C207.19 169.467 206.978 167.776 206.229 166.3C205.48 164.824 204.24 163.655 202.722 162.995Z" fill="black" fill-opacity="0.72"/>
</svg>
