<svg width="263" height="263" viewBox="0 0 263 263" fill="none" xmlns="http://www.w3.org/2000/svg">
<circle cx="131.5" cy="131.5" r="124.5" stroke="black" stroke-opacity="0.72" stroke-width="14"/>
<path d="M192.938 75H71.0625C63.2959 75 57 81.2959 57 89.0625V173.438C57 181.204 63.2959 187.5 71.0625 187.5H192.938C200.704 187.5 207 181.204 207 173.438V89.0625C207 81.2959 200.704 75 192.938 75ZM192.938 89.0625V101.017C186.369 106.366 175.896 114.684 153.508 132.215C148.574 136.096 138.8 145.42 132 145.311C125.201 145.421 115.424 136.095 110.492 132.215C88.1074 114.687 77.6323 106.367 71.0625 101.017V89.0625H192.938ZM71.0625 173.438V119.062C77.7756 124.409 87.2956 131.912 101.806 143.275C108.209 148.315 119.423 159.442 132 159.375C144.515 159.442 155.587 148.477 162.191 143.277C176.701 131.915 186.224 124.409 192.938 119.062V173.438H71.0625Z" fill="black" fill-opacity="0.72"/>
</svg>
