<?xml version="1.0" encoding="UTF-8"?>
<svg id="Layer_1" data-name="Layer 1" xmlns="http://www.w3.org/2000/svg" viewBox="0 0 500 500">
  <defs>
    <style>
      .cls-1 {
        fill: #dc395f;
      }
    </style>
  </defs>
  <path class="cls-1" d="m439.97,13.45H60.36c-23.21,0-42.03,18.82-42.03,42.03v379.6c0,23.21,18.82,42.03,42.03,42.03h379.6c23.21,0,42.03-18.82,42.03-42.03V55.48c0-23.21-18.82-42.03-42.03-42.03ZM173.29,103.52c15.41,0,28.33,12.08,28.33,27.9s-12.91,27.91-28.33,27.91-28.32-12.08-28.32-27.91,12.91-27.9,28.32-27.9Zm189.5,266.99c-28.74,0-42.48-17.07-42.48-40.4,0-6.66.83-13.75,2.91-20.83l13.75-49.15c1.67-5.42,2.08-10.41,2.08-14.99,0-15.82-9.58-25.41-24.99-25.41-19.58,0-32.49,14.05-39.16,41.13l-26.66,106.93h-46.65l8.37-33.6c-13.71,22.53-32.76,36.48-56.25,36.48-28.33,0-41.65-16.32-41.65-40.9,0-6.24.83-13.88,2.5-20.97h0l21.24-86.78h-32.9l10-36.88h79.14l-31.24,123.93c-2.08,7.92-2.92,14.49-2.92,19.06,0,7.93,3.9,10.24,10,11.62,3.71.83,33.32.25,49.43-35.57l20.52-82.16h-33.32l10-36.88h71.22l-9.16,41.88c12.49-23.33,37.49-45.5,62.06-45.5,26.24,0,47.9,18.7,47.9,54.52,0,9.16-1.25,19.13-4.58,30.38l-13.33,47.88c-1.25,5.01-2.08,9.17-2.08,12.92,0,8.33,3.33,12.49,9.58,12.49s14.16-4.59,23.33-29.99l18.33,7.07c-10.83,37.91-30.41,53.73-54.98,53.73Z"/>
</svg>