<?xml version="1.0" encoding="UTF-8"?>
<svg id="Layer_1" data-name="Layer 1" xmlns="http://www.w3.org/2000/svg" viewBox="0 0 500 500">
  <defs>
    <style>
      .cls-1 {
        fill: #9d90fa;
      }

      .cls-2 {
        fill: #11005d;
      }
    </style>
  </defs>
  <g id="Pr">
    <rect class="cls-2" x="12.23" y="12.23" width="475.55" height="475.55" rx="90.04" ry="90.04"/>
    <g>
      <path class="cls-1" d="m138.34,152.21c0-1.48.59-2.36,2.07-2.36,11.23-.29,33.08-.89,54.65-.89,57.31,0,78.58,31.9,78.58,64.4,0,46.97-36.33,67.35-80.94,67.35h-18.61v60.56c0,1.48-.59,2.36-2.36,2.36h-31.02c-1.48,0-2.36-.59-2.36-2.07v-189.35Zm35.74,96.89c5.02.3,8.86.3,18.61.3,24.81,0,45.79-8.27,45.79-35.15,0-21.56-15.36-34.27-42.54-34.27-10.34,0-18.61.3-21.86.59v68.53Z"/>
      <path class="cls-1" d="m327.39,198c1.77,0,2.66.59,3.25,2.36,1.48,3.84,2.66,11.23,2.95,17.72,10.04-12.41,26.88-23.04,47.26-23.04,1.77,0,2.36.3,2.36,2.07v31.31c0,1.48-.59,2.07-2.66,2.07-20.97-.59-38.4,6.79-45.2,15.66v95.12c0,1.77-.89,2.36-2.66,2.36h-30.72c-2.07,0-2.66-.89-2.66-2.36v-101.91c0-12.7-.3-29.84-1.48-39.58,0-1.48.3-1.77,1.77-1.77h27.77Z"/>
    </g>
  </g>
</svg>