<svg width="1920" height="1112" viewBox="0 0 1920 1112" fill="none" xmlns="http://www.w3.org/2000/svg">
<rect x="175" y="118" width="471" height="103" rx="6" fill="#9747FF"/>
<path d="M344.764 166.094H338.543C338.429 165.289 338.197 164.574 337.847 163.949C337.496 163.314 337.047 162.775 336.497 162.33C335.948 161.884 335.314 161.544 334.594 161.307C333.884 161.07 333.112 160.952 332.279 160.952C330.773 160.952 329.461 161.326 328.344 162.074C327.226 162.812 326.36 163.892 325.744 165.312C325.129 166.723 324.821 168.437 324.821 170.455C324.821 172.528 325.129 174.271 325.744 175.682C326.369 177.093 327.241 178.158 328.358 178.878C329.475 179.598 330.768 179.957 332.236 179.957C333.06 179.957 333.822 179.848 334.523 179.631C335.233 179.413 335.863 179.096 336.412 178.679C336.961 178.253 337.416 177.737 337.776 177.131C338.145 176.525 338.401 175.833 338.543 175.057L344.764 175.085C344.603 176.42 344.201 177.708 343.557 178.949C342.922 180.18 342.065 181.283 340.986 182.259C339.916 183.224 338.637 183.991 337.151 184.56C335.673 185.118 334.002 185.398 332.136 185.398C329.542 185.398 327.222 184.811 325.176 183.636C323.14 182.462 321.53 180.762 320.347 178.537C319.172 176.312 318.585 173.617 318.585 170.455C318.585 167.282 319.182 164.583 320.375 162.358C321.568 160.133 323.188 158.437 325.233 157.273C327.279 156.098 329.58 155.511 332.136 155.511C333.822 155.511 335.385 155.748 336.824 156.222C338.273 156.695 339.556 157.386 340.673 158.295C341.791 159.195 342.7 160.298 343.401 161.605C344.111 162.912 344.565 164.408 344.764 166.094ZM362.173 175.71V163.182H368.224V185H362.414V181.037H362.187C361.694 182.315 360.875 183.343 359.729 184.119C358.593 184.896 357.206 185.284 355.568 185.284C354.109 185.284 352.826 184.953 351.718 184.29C350.61 183.627 349.744 182.685 349.119 181.463C348.503 180.241 348.191 178.778 348.181 177.074V163.182H354.232V175.994C354.242 177.282 354.587 178.3 355.269 179.048C355.951 179.796 356.865 180.17 358.011 180.17C358.74 180.17 359.422 180.005 360.056 179.673C360.691 179.332 361.202 178.83 361.59 178.168C361.988 177.505 362.182 176.686 362.173 175.71ZM390.337 169.403L384.798 169.744C384.703 169.271 384.499 168.845 384.187 168.466C383.874 168.078 383.462 167.77 382.951 167.543C382.449 167.306 381.848 167.188 381.147 167.188C380.21 167.188 379.419 167.386 378.775 167.784C378.131 168.172 377.809 168.693 377.809 169.347C377.809 169.867 378.017 170.308 378.434 170.668C378.851 171.027 379.566 171.316 380.579 171.534L384.528 172.33C386.649 172.765 388.23 173.466 389.272 174.432C390.314 175.398 390.835 176.667 390.835 178.239C390.835 179.669 390.413 180.923 389.57 182.003C388.737 183.082 387.591 183.925 386.133 184.531C384.684 185.128 383.013 185.426 381.119 185.426C378.23 185.426 375.929 184.825 374.215 183.622C372.511 182.41 371.512 180.762 371.218 178.679L377.17 178.366C377.35 179.247 377.785 179.92 378.477 180.384C379.168 180.838 380.053 181.065 381.133 181.065C382.193 181.065 383.046 180.862 383.69 180.455C384.343 180.038 384.675 179.503 384.684 178.849C384.675 178.3 384.443 177.85 383.988 177.5C383.533 177.14 382.833 176.866 381.886 176.676L378.107 175.923C375.977 175.497 374.39 174.759 373.349 173.707C372.317 172.656 371.8 171.316 371.8 169.688C371.8 168.286 372.179 167.079 372.937 166.065C373.704 165.052 374.779 164.271 376.161 163.722C377.553 163.172 379.182 162.898 381.048 162.898C383.803 162.898 385.972 163.48 387.553 164.645C389.144 165.81 390.072 167.396 390.337 169.403ZM405.37 163.182V167.727H392.231V163.182H405.37ZM395.214 157.955H401.265V178.295C401.265 178.854 401.35 179.29 401.521 179.602C401.691 179.905 401.928 180.118 402.231 180.241C402.543 180.365 402.903 180.426 403.31 180.426C403.594 180.426 403.879 180.402 404.163 180.355C404.447 180.298 404.665 180.256 404.816 180.227L405.768 184.73C405.465 184.825 405.039 184.934 404.489 185.057C403.94 185.189 403.273 185.27 402.487 185.298C401.028 185.355 399.75 185.161 398.651 184.716C397.562 184.271 396.715 183.58 396.109 182.642C395.503 181.705 395.204 180.521 395.214 179.091V157.955ZM418.055 185.426C415.849 185.426 413.941 184.957 412.331 184.02C410.731 183.073 409.495 181.757 408.624 180.071C407.752 178.376 407.317 176.411 407.317 174.176C407.317 171.922 407.752 169.953 408.624 168.267C409.495 166.572 410.731 165.256 412.331 164.318C413.941 163.371 415.849 162.898 418.055 162.898C420.262 162.898 422.165 163.371 423.766 164.318C425.375 165.256 426.616 166.572 427.487 168.267C428.358 169.953 428.794 171.922 428.794 174.176C428.794 176.411 428.358 178.376 427.487 180.071C426.616 181.757 425.375 183.073 423.766 184.02C422.165 184.957 420.262 185.426 418.055 185.426ZM418.084 180.739C419.088 180.739 419.926 180.455 420.598 179.886C421.27 179.309 421.777 178.523 422.118 177.528C422.468 176.534 422.643 175.402 422.643 174.134C422.643 172.865 422.468 171.733 422.118 170.739C421.777 169.744 421.27 168.958 420.598 168.381C419.926 167.803 419.088 167.514 418.084 167.514C417.071 167.514 416.218 167.803 415.527 168.381C414.845 168.958 414.329 169.744 413.979 170.739C413.638 171.733 413.467 172.865 413.467 174.134C413.467 175.402 413.638 176.534 413.979 177.528C414.329 178.523 414.845 179.309 415.527 179.886C416.218 180.455 417.071 180.739 418.084 180.739ZM431.849 185V163.182H437.616V167.031H437.871C438.326 165.753 439.084 164.744 440.144 164.006C441.205 163.267 442.474 162.898 443.951 162.898C445.447 162.898 446.721 163.272 447.772 164.02C448.823 164.759 449.524 165.762 449.874 167.031H450.102C450.547 165.781 451.352 164.782 452.516 164.034C453.691 163.277 455.078 162.898 456.678 162.898C458.714 162.898 460.367 163.546 461.636 164.844C462.914 166.132 463.553 167.959 463.553 170.327V185H457.516V171.52C457.516 170.308 457.194 169.399 456.55 168.793C455.906 168.187 455.102 167.884 454.136 167.884C453.037 167.884 452.18 168.234 451.565 168.935C450.949 169.626 450.641 170.54 450.641 171.676V185H444.775V171.392C444.775 170.322 444.467 169.47 443.852 168.835C443.245 168.201 442.445 167.884 441.451 167.884C440.779 167.884 440.173 168.054 439.633 168.395C439.102 168.726 438.681 169.195 438.369 169.801C438.056 170.398 437.9 171.098 437.9 171.903V185H431.849ZM477.396 185.426C475.152 185.426 473.22 184.972 471.601 184.062C469.991 183.144 468.75 181.847 467.879 180.17C467.008 178.485 466.572 176.491 466.572 174.19C466.572 171.946 467.008 169.976 467.879 168.281C468.75 166.586 469.977 165.265 471.558 164.318C473.149 163.371 475.015 162.898 477.155 162.898C478.594 162.898 479.934 163.13 481.175 163.594C482.425 164.048 483.514 164.735 484.442 165.653C485.379 166.572 486.108 167.727 486.629 169.119C487.15 170.502 487.41 172.121 487.41 173.977V175.639H468.987V171.889H481.714C481.714 171.018 481.525 170.246 481.146 169.574C480.767 168.902 480.242 168.376 479.57 167.997C478.907 167.609 478.135 167.415 477.254 167.415C476.336 167.415 475.521 167.628 474.811 168.054C474.11 168.471 473.561 169.034 473.163 169.744C472.766 170.445 472.562 171.226 472.552 172.088V175.653C472.552 176.733 472.751 177.666 473.149 178.452C473.556 179.238 474.129 179.844 474.868 180.27C475.606 180.696 476.482 180.909 477.496 180.909C478.168 180.909 478.784 180.814 479.342 180.625C479.901 180.436 480.379 180.152 480.777 179.773C481.175 179.394 481.478 178.93 481.686 178.381L487.283 178.75C486.998 180.095 486.416 181.269 485.535 182.273C484.664 183.267 483.537 184.044 482.155 184.602C480.782 185.152 479.195 185.426 477.396 185.426ZM490.479 185V163.182H496.346V166.989H496.573C496.971 165.634 497.638 164.612 498.576 163.92C499.513 163.22 500.593 162.869 501.815 162.869C502.118 162.869 502.444 162.888 502.795 162.926C503.145 162.964 503.453 163.016 503.718 163.082V168.452C503.434 168.366 503.041 168.291 502.539 168.224C502.037 168.158 501.578 168.125 501.161 168.125C500.271 168.125 499.475 168.319 498.775 168.707C498.083 169.086 497.534 169.616 497.127 170.298C496.729 170.98 496.53 171.766 496.53 172.656V185H490.479Z" fill="white"/>
<rect x="1154" y="118" width="472" height="103" rx="6" fill="#9747FF"/>
<path d="M1352.39 185H1345.8L1355.84 155.909H1363.77L1373.79 185H1367.2L1359.92 162.557H1359.69L1352.39 185ZM1351.98 173.565H1367.54V178.366H1351.98V173.565ZM1391.53 164.276C1391.42 163.13 1390.93 162.24 1390.07 161.605C1389.21 160.971 1388.04 160.653 1386.56 160.653C1385.56 160.653 1384.71 160.795 1384.02 161.08C1383.33 161.354 1382.8 161.738 1382.43 162.23C1382.07 162.723 1381.89 163.281 1381.89 163.906C1381.87 164.427 1381.98 164.882 1382.21 165.27C1382.46 165.658 1382.8 165.994 1383.22 166.278C1383.65 166.553 1384.14 166.795 1384.7 167.003C1385.26 167.202 1385.86 167.372 1386.49 167.514L1389.1 168.139C1390.37 168.423 1391.54 168.802 1392.6 169.276C1393.66 169.749 1394.58 170.331 1395.35 171.023C1396.13 171.714 1396.73 172.528 1397.16 173.466C1397.59 174.403 1397.82 175.478 1397.82 176.69C1397.82 178.471 1397.36 180.014 1396.46 181.321C1395.57 182.618 1394.28 183.627 1392.6 184.347C1390.92 185.057 1388.9 185.412 1386.53 185.412C1384.18 185.412 1382.14 185.052 1380.4 184.332C1378.66 183.613 1377.31 182.547 1376.33 181.136C1375.37 179.716 1374.86 177.959 1374.81 175.866H1380.77C1380.83 176.842 1381.11 177.656 1381.6 178.31C1382.11 178.954 1382.77 179.441 1383.61 179.773C1384.45 180.095 1385.4 180.256 1386.46 180.256C1387.5 180.256 1388.41 180.104 1389.17 179.801C1389.95 179.498 1390.55 179.077 1390.98 178.537C1391.4 177.997 1391.62 177.377 1391.62 176.676C1391.62 176.023 1391.42 175.473 1391.04 175.028C1390.66 174.583 1390.1 174.205 1389.36 173.892C1388.63 173.58 1387.73 173.295 1386.67 173.04L1383.51 172.244C1381.05 171.648 1379.12 170.715 1377.7 169.446C1376.28 168.177 1375.57 166.468 1375.58 164.318C1375.57 162.557 1376.04 161.018 1376.99 159.702C1377.94 158.385 1379.25 157.358 1380.92 156.619C1382.59 155.881 1384.48 155.511 1386.6 155.511C1388.76 155.511 1390.65 155.881 1392.26 156.619C1393.88 157.358 1395.14 158.385 1396.04 159.702C1396.93 161.018 1397.4 162.543 1397.43 164.276H1391.53ZM1401.08 155.909H1408.67L1416.68 175.455H1417.02L1425.03 155.909H1432.62V185H1426.65V166.065H1426.41L1418.88 184.858H1414.82L1407.29 165.994H1407.05V185H1401.08V155.909Z" fill="white"/>
<rect x="28" y="371" width="181" height="91" rx="6" fill="#0D99FF"/>
<path d="M97.5441 410.551C97.3925 409.206 96.7675 408.165 95.6691 407.426C94.5706 406.678 93.188 406.304 91.5213 406.304C90.3282 406.304 89.296 406.493 88.4247 406.872C87.5535 407.241 86.8765 407.753 86.3935 408.406C85.92 409.05 85.6833 409.784 85.6833 410.608C85.6833 411.299 85.8443 411.896 86.1662 412.398C86.4977 412.9 86.9285 413.321 87.4588 413.662C87.9986 413.993 88.5763 414.273 89.1918 414.5C89.8073 414.718 90.3992 414.898 90.9674 415.04L93.8083 415.778C94.7363 416.006 95.688 416.313 96.6634 416.702C97.6388 417.09 98.5431 417.601 99.3765 418.236C100.21 418.87 100.882 419.656 101.393 420.594C101.914 421.531 102.175 422.653 102.175 423.96C102.175 425.608 101.749 427.071 100.896 428.349C100.054 429.628 98.8272 430.636 97.2174 431.375C95.617 432.114 93.6804 432.483 91.4077 432.483C89.2297 432.483 87.3452 432.137 85.7543 431.446C84.1634 430.755 82.9181 429.775 82.0185 428.506C81.1189 427.227 80.6217 425.712 80.527 423.96H84.9304C85.0157 425.011 85.3566 425.887 85.9532 426.588C86.5592 427.279 87.331 427.795 88.2685 428.136C89.2155 428.468 90.2524 428.634 91.3793 428.634C92.6198 428.634 93.723 428.439 94.6889 428.051C95.6643 427.653 96.4314 427.104 96.9901 426.403C97.5488 425.693 97.8282 424.865 97.8282 423.918C97.8282 423.056 97.5819 422.35 97.0895 421.801C96.6066 421.252 95.9484 420.797 95.1151 420.438C94.2912 420.078 93.3585 419.76 92.3168 419.486L88.8793 418.548C86.5497 417.914 84.7032 416.981 83.3395 415.75C81.9854 414.519 81.3083 412.89 81.3083 410.864C81.3083 409.187 81.7628 407.724 82.6719 406.474C83.581 405.224 84.8121 404.254 86.3651 403.562C87.9181 402.862 89.67 402.511 91.6208 402.511C93.5905 402.511 95.3282 402.857 96.8338 403.548C98.349 404.24 99.5422 405.191 100.413 406.403C101.285 407.606 101.739 408.989 101.777 410.551H97.5441ZM106.54 432V402.909H110.929V416.801H111.284L123.486 402.909H129.011L117.278 416.006L129.054 432H123.77L114.366 419.003L110.929 422.952V432H106.54ZM150.93 402.909H155.333V422.043C155.333 424.079 154.855 425.883 153.898 427.455C152.942 429.017 151.597 430.248 149.864 431.148C148.131 432.038 146.1 432.483 143.771 432.483C141.45 432.483 139.424 432.038 137.691 431.148C135.958 430.248 134.613 429.017 133.657 427.455C132.7 425.883 132.222 424.079 132.222 422.043V402.909H136.611V421.688C136.611 423.004 136.9 424.173 137.478 425.196C138.065 426.219 138.894 427.024 139.964 427.611C141.034 428.188 142.303 428.477 143.771 428.477C145.248 428.477 146.522 428.188 147.592 427.611C148.671 427.024 149.495 426.219 150.063 425.196C150.641 424.173 150.93 423.004 150.93 421.688V402.909Z" fill="white"/>
<rect x="943" y="371" width="329" height="91" rx="6" fill="#0D99FF"/>
<path d="M955.978 432V402.909H960.367V428.222H973.549V432H955.978ZM993.543 410.551C993.391 409.206 992.766 408.165 991.668 407.426C990.569 406.678 989.187 406.304 987.52 406.304C986.327 406.304 985.295 406.493 984.423 406.872C983.552 407.241 982.875 407.753 982.392 408.406C981.919 409.05 981.682 409.784 981.682 410.608C981.682 411.299 981.843 411.896 982.165 412.398C982.496 412.9 982.927 413.321 983.458 413.662C983.997 413.993 984.575 414.273 985.191 414.5C985.806 414.718 986.398 414.898 986.966 415.04L989.807 415.778C990.735 416.006 991.687 416.313 992.662 416.702C993.638 417.09 994.542 417.601 995.375 418.236C996.209 418.87 996.881 419.656 997.392 420.594C997.913 421.531 998.173 422.653 998.173 423.96C998.173 425.608 997.747 427.071 996.895 428.349C996.052 429.628 994.826 430.636 993.216 431.375C991.616 432.114 989.679 432.483 987.406 432.483C985.228 432.483 983.344 432.137 981.753 431.446C980.162 430.755 978.917 429.775 978.017 428.506C977.118 427.227 976.62 425.712 976.526 423.96H980.929C981.014 425.011 981.355 425.887 981.952 426.588C982.558 427.279 983.33 427.795 984.267 428.136C985.214 428.468 986.251 428.634 987.378 428.634C988.619 428.634 989.722 428.439 990.688 428.051C991.663 427.653 992.43 427.104 992.989 426.403C993.548 425.693 993.827 424.865 993.827 423.918C993.827 423.056 993.581 422.35 993.088 421.801C992.605 421.252 991.947 420.797 991.114 420.438C990.29 420.078 989.357 419.76 988.316 419.486L984.878 418.548C982.548 417.914 980.702 416.981 979.338 415.75C977.984 414.519 977.307 412.89 977.307 410.864C977.307 409.187 977.762 407.724 978.671 406.474C979.58 405.224 980.811 404.254 982.364 403.562C983.917 402.862 985.669 402.511 987.62 402.511C989.589 402.511 991.327 402.857 992.833 403.548C994.348 404.24 995.541 405.191 996.412 406.403C997.283 407.606 997.738 408.989 997.776 410.551H993.543ZM1020.07 432.426C1018.31 432.426 1016.74 431.976 1015.36 431.077C1013.98 430.168 1012.9 428.875 1012.12 427.199C1011.34 425.513 1010.95 423.491 1010.95 421.134C1010.95 418.776 1011.34 416.759 1012.13 415.082C1012.93 413.406 1014.02 412.123 1015.4 411.233C1016.78 410.343 1018.35 409.898 1020.1 409.898C1021.45 409.898 1022.54 410.125 1023.37 410.58C1024.2 411.025 1024.84 411.545 1025.3 412.142C1025.76 412.739 1026.12 413.264 1026.38 413.719H1026.63V402.909H1030.88V432H1026.73V428.605H1026.38C1026.12 429.069 1025.75 429.599 1025.27 430.196C1024.8 430.793 1024.14 431.313 1023.31 431.759C1022.48 432.204 1021.4 432.426 1020.07 432.426ZM1021.01 428.804C1022.23 428.804 1023.26 428.482 1024.11 427.838C1024.96 427.185 1025.6 426.28 1026.04 425.125C1026.48 423.97 1026.7 422.625 1026.7 421.091C1026.7 419.576 1026.49 418.25 1026.05 417.114C1025.62 415.977 1024.98 415.092 1024.13 414.457C1023.29 413.823 1022.25 413.506 1021.01 413.506C1019.73 413.506 1018.66 413.837 1017.81 414.5C1016.96 415.163 1016.32 416.067 1015.88 417.213C1015.45 418.359 1015.24 419.652 1015.24 421.091C1015.24 422.549 1015.46 423.861 1015.9 425.026C1016.33 426.19 1016.97 427.114 1017.83 427.795C1018.69 428.468 1019.75 428.804 1021.01 428.804ZM1045.47 432.44C1043.32 432.44 1041.47 431.981 1039.91 431.062C1038.37 430.134 1037.18 428.832 1036.33 427.156C1035.5 425.471 1035.08 423.496 1035.08 421.233C1035.08 418.998 1035.5 417.028 1036.33 415.324C1037.18 413.619 1038.35 412.289 1039.86 411.332C1041.37 410.376 1043.14 409.898 1045.17 409.898C1046.4 409.898 1047.59 410.101 1048.75 410.509C1049.9 410.916 1050.94 411.555 1051.86 412.426C1052.78 413.297 1053.5 414.429 1054.03 415.821C1054.56 417.204 1054.83 418.884 1054.83 420.864V422.369H1037.48V419.188H1050.66C1050.66 418.07 1050.44 417.08 1049.98 416.219C1049.53 415.348 1048.89 414.661 1048.07 414.159C1047.25 413.657 1046.29 413.406 1045.2 413.406C1044 413.406 1042.96 413.7 1042.07 414.287C1041.19 414.865 1040.51 415.622 1040.03 416.56C1039.55 417.488 1039.32 418.496 1039.32 419.585V422.071C1039.32 423.529 1039.57 424.77 1040.08 425.793C1040.6 426.815 1041.33 427.597 1042.26 428.136C1043.18 428.667 1044.27 428.932 1045.51 428.932C1046.31 428.932 1047.05 428.818 1047.71 428.591C1048.37 428.354 1048.95 428.004 1049.43 427.54C1049.91 427.076 1050.28 426.503 1050.54 425.821L1054.56 426.545C1054.23 427.729 1053.66 428.766 1052.82 429.656C1052 430.537 1050.96 431.223 1049.71 431.716C1048.47 432.199 1047.06 432.44 1045.47 432.44ZM1062.91 402.909V432H1058.66V402.909H1062.91ZM1067.74 432V410.182H1071.99V432H1067.74ZM1069.88 406.815C1069.15 406.815 1068.51 406.569 1067.98 406.077C1067.46 405.575 1067.2 404.978 1067.2 404.287C1067.2 403.586 1067.46 402.99 1067.98 402.497C1068.51 401.995 1069.15 401.744 1069.88 401.744C1070.62 401.744 1071.25 401.995 1071.77 402.497C1072.3 402.99 1072.57 403.586 1072.57 404.287C1072.57 404.978 1072.3 405.575 1071.77 406.077C1071.25 406.569 1070.62 406.815 1069.88 406.815ZM1095.49 410.182L1087.57 432H1083.03L1075.1 410.182H1079.66L1085.19 426.972H1085.41L1090.93 410.182H1095.49ZM1107.26 432.44C1105.11 432.44 1103.26 431.981 1101.7 431.062C1100.16 430.134 1098.97 428.832 1098.12 427.156C1097.29 425.471 1096.88 423.496 1096.88 421.233C1096.88 418.998 1097.29 417.028 1098.12 415.324C1098.97 413.619 1100.14 412.289 1101.65 411.332C1103.16 410.376 1104.93 409.898 1106.96 409.898C1108.19 409.898 1109.38 410.101 1110.54 410.509C1111.7 410.916 1112.73 411.555 1113.65 412.426C1114.57 413.297 1115.29 414.429 1115.82 415.821C1116.35 417.204 1116.62 418.884 1116.62 420.864V422.369H1099.28V419.188H1112.46C1112.46 418.07 1112.23 417.08 1111.78 416.219C1111.32 415.348 1110.68 414.661 1109.86 414.159C1109.04 413.657 1108.09 413.406 1106.99 413.406C1105.8 413.406 1104.75 413.7 1103.86 414.287C1102.98 414.865 1102.3 415.622 1101.82 416.56C1101.34 417.488 1101.11 418.496 1101.11 419.585V422.071C1101.11 423.529 1101.36 424.77 1101.88 425.793C1102.4 426.815 1103.12 427.597 1104.05 428.136C1104.98 428.667 1106.06 428.932 1107.3 428.932C1108.11 428.932 1108.84 428.818 1109.5 428.591C1110.17 428.354 1110.74 428.004 1111.22 427.54C1111.7 427.076 1112.07 426.503 1112.33 425.821L1116.35 426.545C1116.03 427.729 1115.45 428.766 1114.62 429.656C1113.79 430.537 1112.76 431.223 1111.51 431.716C1110.27 432.199 1108.85 432.44 1107.26 432.44ZM1120.45 432V410.182H1124.56V413.648H1124.78C1125.18 412.473 1125.88 411.55 1126.89 410.878C1127.9 410.196 1129.05 409.855 1130.32 409.855C1130.59 409.855 1130.9 409.865 1131.26 409.884C1131.63 409.902 1131.92 409.926 1132.13 409.955V414.017C1131.96 413.97 1131.65 413.918 1131.22 413.861C1130.78 413.795 1130.35 413.761 1129.91 413.761C1128.91 413.761 1128.01 413.974 1127.23 414.401C1126.45 414.817 1125.84 415.4 1125.38 416.148C1124.93 416.886 1124.7 417.729 1124.7 418.676V432H1120.45ZM1138.27 440.182C1137.64 440.182 1137.06 440.13 1136.54 440.026C1136.02 439.931 1135.63 439.827 1135.37 439.713L1136.4 436.233C1137.17 436.441 1137.86 436.531 1138.47 436.503C1139.08 436.474 1139.61 436.247 1140.08 435.821C1140.55 435.395 1140.97 434.699 1141.33 433.733L1141.85 432.284L1133.87 410.182H1138.41L1143.94 427.114H1144.17L1149.69 410.182H1154.25L1145.26 434.912C1144.84 436.048 1144.31 437.009 1143.67 437.795C1143.03 438.591 1142.26 439.188 1141.37 439.585C1140.48 439.983 1139.45 440.182 1138.27 440.182ZM1176.47 432.44C1174.32 432.44 1172.47 431.981 1170.92 431.062C1169.38 430.134 1168.18 428.832 1167.34 427.156C1166.51 425.471 1166.09 423.496 1166.09 421.233C1166.09 418.998 1166.51 417.028 1167.34 415.324C1168.18 413.619 1169.36 412.289 1170.86 411.332C1172.38 410.376 1174.15 409.898 1176.17 409.898C1177.41 409.898 1178.6 410.101 1179.75 410.509C1180.91 410.916 1181.95 411.555 1182.86 412.426C1183.78 413.297 1184.51 414.429 1185.04 415.821C1185.57 417.204 1185.83 418.884 1185.83 420.864V422.369H1168.49V419.188H1181.67C1181.67 418.07 1181.44 417.08 1180.99 416.219C1180.54 415.348 1179.9 414.661 1179.07 414.159C1178.26 413.657 1177.3 413.406 1176.2 413.406C1175.01 413.406 1173.97 413.7 1173.08 414.287C1172.2 414.865 1171.52 415.622 1171.03 416.56C1170.56 417.488 1170.32 418.496 1170.32 419.585V422.071C1170.32 423.529 1170.58 424.77 1171.09 425.793C1171.61 426.815 1172.33 427.597 1173.26 428.136C1174.19 428.667 1175.27 428.932 1176.52 428.932C1177.32 428.932 1178.05 428.818 1178.72 428.591C1179.38 428.354 1179.95 428.004 1180.44 427.54C1180.92 427.076 1181.29 426.503 1181.54 425.821L1185.56 426.545C1185.24 427.729 1184.66 428.766 1183.83 429.656C1183.01 430.537 1181.97 431.223 1180.72 431.716C1179.48 432.199 1178.06 432.44 1176.47 432.44ZM1189.67 432V410.182H1193.74V413.733H1194.01C1194.47 412.53 1195.21 411.593 1196.24 410.92C1197.27 410.239 1198.51 409.898 1199.95 409.898C1201.41 409.898 1202.63 410.239 1203.61 410.92C1204.61 411.602 1205.34 412.54 1205.82 413.733H1206.04C1206.56 412.568 1207.39 411.64 1208.53 410.949C1209.67 410.248 1211.02 409.898 1212.59 409.898C1214.57 409.898 1216.19 410.518 1217.44 411.759C1218.7 412.999 1219.33 414.869 1219.33 417.369V432H1215.08V417.767C1215.08 416.29 1214.68 415.22 1213.87 414.557C1213.07 413.894 1212.1 413.562 1210.99 413.562C1209.6 413.562 1208.53 413.989 1207.76 414.841C1207 415.684 1206.61 416.768 1206.61 418.094V432H1202.38V417.497C1202.38 416.313 1202.01 415.362 1201.27 414.642C1200.53 413.922 1199.57 413.562 1198.39 413.562C1197.58 413.562 1196.84 413.776 1196.16 414.202C1195.49 414.618 1194.94 415.201 1194.52 415.949C1194.12 416.697 1193.91 417.563 1193.91 418.548V432H1189.67ZM1230.49 432.483C1229.1 432.483 1227.85 432.227 1226.74 431.716C1225.62 431.195 1224.73 430.442 1224.08 429.457C1223.44 428.473 1223.11 427.265 1223.11 425.835C1223.11 424.604 1223.35 423.591 1223.83 422.795C1224.3 422 1224.94 421.37 1225.74 420.906C1226.55 420.442 1227.45 420.092 1228.44 419.855C1229.44 419.618 1230.45 419.438 1231.48 419.315C1232.79 419.164 1233.85 419.041 1234.66 418.946C1235.48 418.842 1236.07 418.676 1236.44 418.449C1236.81 418.222 1236.99 417.852 1236.99 417.341V417.241C1236.99 416.001 1236.64 415.04 1235.94 414.358C1235.25 413.676 1234.22 413.335 1232.84 413.335C1231.42 413.335 1230.29 413.652 1229.46 414.287C1228.65 414.912 1228.09 415.608 1227.77 416.375L1223.78 415.466C1224.26 414.14 1224.95 413.07 1225.86 412.256C1226.77 411.432 1227.83 410.835 1229.02 410.466C1230.22 410.087 1231.47 409.898 1232.79 409.898C1233.66 409.898 1234.58 410.002 1235.56 410.21C1236.54 410.409 1237.46 410.778 1238.31 411.318C1239.18 411.858 1239.88 412.63 1240.43 413.634C1240.98 414.628 1241.25 415.92 1241.25 417.511V432H1237.11V429.017H1236.94C1236.66 429.566 1236.25 430.106 1235.7 430.636C1235.15 431.167 1234.45 431.607 1233.58 431.957C1232.72 432.308 1231.69 432.483 1230.49 432.483ZM1231.41 429.074C1232.58 429.074 1233.59 428.842 1234.42 428.378C1235.26 427.914 1235.9 427.308 1236.34 426.56C1236.78 425.802 1237.01 424.992 1237.01 424.131V421.318C1236.86 421.47 1236.56 421.612 1236.13 421.744C1235.7 421.867 1235.21 421.976 1234.66 422.071C1234.11 422.156 1233.58 422.237 1233.06 422.312C1232.54 422.379 1232.1 422.436 1231.75 422.483C1230.93 422.587 1230.17 422.762 1229.49 423.009C1228.82 423.255 1228.28 423.61 1227.87 424.074C1227.48 424.528 1227.28 425.134 1227.28 425.892C1227.28 426.943 1227.67 427.739 1228.44 428.278C1229.22 428.809 1230.21 429.074 1231.41 429.074ZM1246.03 432V410.182H1250.28V432H1246.03ZM1248.18 406.815C1247.44 406.815 1246.8 406.569 1246.27 406.077C1245.75 405.575 1245.49 404.978 1245.49 404.287C1245.49 403.586 1245.75 402.99 1246.27 402.497C1246.8 401.995 1247.44 401.744 1248.18 401.744C1248.91 401.744 1249.54 401.995 1250.07 402.497C1250.6 402.99 1250.86 403.586 1250.86 404.287C1250.86 404.978 1250.6 405.575 1250.07 406.077C1249.54 406.569 1248.91 406.815 1248.18 406.815ZM1259.36 402.909V432H1255.11V402.909H1259.36Z" fill="white"/>
<rect x="28" y="530" width="181" height="91" rx="6" fill="#BDE3FF"/>
<path d="M90.8324 561.909V591H86.4432V561.909H90.8324ZM96.3445 591V561.909H106.714C108.977 561.909 110.852 562.321 112.339 563.145C113.826 563.969 114.938 565.096 115.677 566.526C116.415 567.946 116.785 569.546 116.785 571.327C116.785 573.116 116.411 574.726 115.663 576.156C114.924 577.577 113.807 578.704 112.31 579.537C110.824 580.361 108.953 580.773 106.7 580.773H99.5689V577.051H106.302C107.732 577.051 108.892 576.805 109.782 576.312C110.672 575.811 111.326 575.129 111.742 574.267C112.159 573.405 112.367 572.425 112.367 571.327C112.367 570.228 112.159 569.253 111.742 568.401C111.326 567.548 110.667 566.881 109.768 566.398C108.878 565.915 107.703 565.673 106.245 565.673H100.734V591H96.3445ZM121.05 561.909H126.377L135.638 584.523H135.979L145.241 561.909H150.567V591H146.391V569.949H146.121L137.542 590.957H134.076L125.496 569.935H125.227V591H121.05V561.909Z" fill="black" fill-opacity="0.8"/>
<rect x="548" y="371" width="266" height="91" rx="6" fill="#14AE5C"/>
<path d="M580.167 410.551C580.015 409.206 579.39 408.165 578.292 407.426C577.193 406.678 575.811 406.304 574.144 406.304C572.951 406.304 571.919 406.493 571.047 406.872C570.176 407.241 569.499 407.753 569.016 408.406C568.543 409.05 568.306 409.784 568.306 410.608C568.306 411.299 568.467 411.896 568.789 412.398C569.12 412.9 569.551 413.321 570.081 413.662C570.621 413.993 571.199 414.273 571.814 414.5C572.43 414.718 573.022 414.898 573.59 415.04L576.431 415.778C577.359 416.006 578.311 416.313 579.286 416.702C580.261 417.09 581.166 417.601 581.999 418.236C582.832 418.87 583.505 419.656 584.016 420.594C584.537 421.531 584.797 422.653 584.797 423.96C584.797 425.608 584.371 427.071 583.519 428.349C582.676 429.628 581.45 430.636 579.84 431.375C578.24 432.114 576.303 432.483 574.03 432.483C571.852 432.483 569.968 432.137 568.377 431.446C566.786 430.755 565.541 429.775 564.641 428.506C563.742 427.227 563.244 425.712 563.15 423.96H567.553C567.638 425.011 567.979 425.887 568.576 426.588C569.182 427.279 569.954 427.795 570.891 428.136C571.838 428.468 572.875 428.634 574.002 428.634C575.242 428.634 576.346 428.439 577.312 428.051C578.287 427.653 579.054 427.104 579.613 426.403C580.171 425.693 580.451 424.865 580.451 423.918C580.451 423.056 580.205 422.35 579.712 421.801C579.229 421.252 578.571 420.797 577.738 420.438C576.914 420.078 575.981 419.76 574.939 419.486L571.502 418.548C569.172 417.914 567.326 416.981 565.962 415.75C564.608 414.519 563.931 412.89 563.931 410.864C563.931 409.187 564.385 407.724 565.295 406.474C566.204 405.224 567.435 404.254 568.988 403.562C570.541 402.862 572.293 402.511 574.243 402.511C576.213 402.511 577.951 402.857 579.456 403.548C580.972 404.24 582.165 405.191 583.036 406.403C583.907 407.606 584.362 408.989 584.4 410.551H580.167ZM598.225 432.44C596.075 432.44 594.224 431.981 592.671 431.062C591.127 430.134 589.934 428.832 589.091 427.156C588.258 425.471 587.841 423.496 587.841 421.233C587.841 418.998 588.258 417.028 589.091 415.324C589.934 413.619 591.108 412.289 592.614 411.332C594.129 410.376 595.9 409.898 597.927 409.898C599.158 409.898 600.351 410.101 601.506 410.509C602.661 410.916 603.698 411.555 604.617 412.426C605.536 413.297 606.26 414.429 606.79 415.821C607.321 417.204 607.586 418.884 607.586 420.864V422.369H590.242V419.188H603.424C603.424 418.07 603.197 417.08 602.742 416.219C602.287 415.348 601.648 414.661 600.824 414.159C600.01 413.657 599.054 413.406 597.955 413.406C596.762 413.406 595.72 413.7 594.83 414.287C593.949 414.865 593.268 415.622 592.785 416.56C592.311 417.488 592.074 418.496 592.074 419.585V422.071C592.074 423.529 592.33 424.77 592.841 425.793C593.362 426.815 594.087 427.597 595.015 428.136C595.943 428.667 597.027 428.932 598.268 428.932C599.072 428.932 599.806 428.818 600.469 428.591C601.132 428.354 601.705 428.004 602.188 427.54C602.671 427.076 603.04 426.503 603.296 425.821L607.316 426.545C606.994 427.729 606.416 428.766 605.583 429.656C604.759 430.537 603.722 431.223 602.472 431.716C601.232 432.199 599.816 432.44 598.225 432.44ZM611.418 432V410.182H615.523V413.648H615.75C616.148 412.473 616.849 411.55 617.853 410.878C618.866 410.196 620.012 409.855 621.29 409.855C621.555 409.855 621.868 409.865 622.228 409.884C622.597 409.902 622.886 409.926 623.094 409.955V414.017C622.924 413.97 622.621 413.918 622.185 413.861C621.75 413.795 621.314 413.761 620.878 413.761C619.875 413.761 618.98 413.974 618.194 414.401C617.417 414.817 616.802 415.4 616.347 416.148C615.893 416.886 615.665 417.729 615.665 418.676V432H611.418ZM645.218 410.182L637.307 432H632.761L624.835 410.182H629.395L634.92 426.972H635.147L640.659 410.182H645.218ZM648.33 432V410.182H652.577V432H648.33ZM650.475 406.815C649.736 406.815 649.102 406.569 648.571 406.077C648.051 405.575 647.79 404.978 647.79 404.287C647.79 403.586 648.051 402.99 648.571 402.497C649.102 401.995 649.736 401.744 650.475 401.744C651.213 401.744 651.843 401.995 652.364 402.497C652.894 402.99 653.16 403.586 653.16 404.287C653.16 404.978 652.894 405.575 652.364 406.077C651.843 406.569 651.213 406.815 650.475 406.815ZM666.601 432.44C664.489 432.44 662.671 431.962 661.147 431.006C659.632 430.04 658.467 428.709 657.652 427.014C656.838 425.319 656.431 423.378 656.431 421.19C656.431 418.974 656.847 417.019 657.681 415.324C658.514 413.619 659.688 412.289 661.204 411.332C662.719 410.376 664.504 409.898 666.559 409.898C668.216 409.898 669.693 410.205 670.99 410.821C672.288 411.427 673.334 412.279 674.13 413.378C674.935 414.476 675.413 415.759 675.564 417.227H671.431C671.204 416.205 670.683 415.324 669.868 414.585C669.063 413.847 667.984 413.477 666.63 413.477C665.446 413.477 664.409 413.79 663.519 414.415C662.638 415.03 661.952 415.911 661.459 417.057C660.967 418.193 660.721 419.538 660.721 421.091C660.721 422.682 660.962 424.055 661.445 425.21C661.928 426.366 662.61 427.26 663.49 427.895C664.381 428.529 665.427 428.847 666.63 428.847C667.435 428.847 668.164 428.7 668.817 428.406C669.48 428.103 670.034 427.672 670.479 427.114C670.934 426.555 671.251 425.883 671.431 425.097H675.564C675.413 426.508 674.954 427.767 674.186 428.875C673.419 429.983 672.392 430.854 671.104 431.489C669.826 432.123 668.325 432.44 666.601 432.44ZM688.63 432.44C686.48 432.44 684.629 431.981 683.076 431.062C681.532 430.134 680.339 428.832 679.496 427.156C678.663 425.471 678.246 423.496 678.246 421.233C678.246 418.998 678.663 417.028 679.496 415.324C680.339 413.619 681.513 412.289 683.019 411.332C684.534 410.376 686.305 409.898 688.331 409.898C689.562 409.898 690.756 410.101 691.911 410.509C693.066 410.916 694.103 411.555 695.022 412.426C695.94 413.297 696.665 414.429 697.195 415.821C697.725 417.204 697.99 418.884 697.99 420.864V422.369H680.647V419.188H693.828C693.828 418.07 693.601 417.08 693.147 416.219C692.692 415.348 692.053 414.661 691.229 414.159C690.415 413.657 689.458 413.406 688.36 413.406C687.167 413.406 686.125 413.7 685.235 414.287C684.354 414.865 683.672 415.622 683.189 416.56C682.716 417.488 682.479 418.496 682.479 419.585V422.071C682.479 423.529 682.735 424.77 683.246 425.793C683.767 426.815 684.491 427.597 685.419 428.136C686.347 428.667 687.432 428.932 688.672 428.932C689.477 428.932 690.211 428.818 690.874 428.591C691.537 428.354 692.11 428.004 692.593 427.54C693.076 427.076 693.445 426.503 693.701 425.821L697.721 426.545C697.399 427.729 696.821 428.766 695.988 429.656C695.164 430.537 694.127 431.223 692.877 431.716C691.636 432.199 690.221 432.44 688.63 432.44ZM720.719 432.44C718.607 432.44 716.789 431.962 715.265 431.006C713.749 430.04 712.585 428.709 711.77 427.014C710.956 425.319 710.549 423.378 710.549 421.19C710.549 418.974 710.965 417.019 711.799 415.324C712.632 413.619 713.806 412.289 715.321 411.332C716.836 410.376 718.622 409.898 720.676 409.898C722.334 409.898 723.811 410.205 725.108 410.821C726.406 411.427 727.452 412.279 728.247 413.378C729.052 414.476 729.531 415.759 729.682 417.227H725.549C725.321 416.205 724.8 415.324 723.986 414.585C723.181 413.847 722.102 413.477 720.747 413.477C719.564 413.477 718.527 413.79 717.637 414.415C716.756 415.03 716.069 415.911 715.577 417.057C715.085 418.193 714.838 419.538 714.838 421.091C714.838 422.682 715.08 424.055 715.563 425.21C716.046 426.366 716.728 427.26 717.608 427.895C718.498 428.529 719.545 428.847 720.747 428.847C721.552 428.847 722.282 428.7 722.935 428.406C723.598 428.103 724.152 427.672 724.597 427.114C725.051 426.555 725.369 425.883 725.549 425.097H729.682C729.531 426.508 729.071 427.767 728.304 428.875C727.537 429.983 726.51 430.854 725.222 431.489C723.943 432.123 722.443 432.44 720.719 432.44ZM733.344 432V410.182H737.449V413.648H737.676C738.074 412.473 738.775 411.55 739.779 410.878C740.792 410.196 741.938 409.855 743.216 409.855C743.481 409.855 743.794 409.865 744.154 409.884C744.523 409.902 744.812 409.926 745.02 409.955V414.017C744.85 413.97 744.547 413.918 744.111 413.861C743.675 413.795 743.24 413.761 742.804 413.761C741.8 413.761 740.906 413.974 740.12 414.401C739.343 414.817 738.728 415.4 738.273 416.148C737.818 416.886 737.591 417.729 737.591 418.676V432H733.344ZM756.438 432.44C754.288 432.44 752.437 431.981 750.884 431.062C749.34 430.134 748.147 428.832 747.304 427.156C746.471 425.471 746.054 423.496 746.054 421.233C746.054 418.998 746.471 417.028 747.304 415.324C748.147 413.619 749.321 412.289 750.827 411.332C752.342 410.376 754.113 409.898 756.139 409.898C757.371 409.898 758.564 410.101 759.719 410.509C760.874 410.916 761.911 411.555 762.83 412.426C763.748 413.297 764.473 414.429 765.003 415.821C765.533 417.204 765.799 418.884 765.799 420.864V422.369H748.455V419.188H761.637C761.637 418.07 761.409 417.08 760.955 416.219C760.5 415.348 759.861 414.661 759.037 414.159C758.223 413.657 757.266 413.406 756.168 413.406C754.975 413.406 753.933 413.7 753.043 414.287C752.162 414.865 751.48 415.622 750.997 416.56C750.524 417.488 750.287 418.496 750.287 419.585V422.071C750.287 423.529 750.543 424.77 751.054 425.793C751.575 426.815 752.299 427.597 753.228 428.136C754.156 428.667 755.24 428.932 756.48 428.932C757.285 428.932 758.019 428.818 758.682 428.591C759.345 428.354 759.918 428.004 760.401 427.54C760.884 427.076 761.253 426.503 761.509 425.821L765.529 426.545C765.207 427.729 764.629 428.766 763.796 429.656C762.972 430.537 761.935 431.223 760.685 431.716C759.444 432.199 758.029 432.44 756.438 432.44ZM772.472 432.27C771.695 432.27 771.028 431.995 770.469 431.446C769.91 430.887 769.631 430.215 769.631 429.429C769.631 428.652 769.91 427.99 770.469 427.44C771.028 426.882 771.695 426.602 772.472 426.602C773.248 426.602 773.916 426.882 774.475 427.44C775.033 427.99 775.313 428.652 775.313 429.429C775.313 429.95 775.18 430.428 774.915 430.864C774.659 431.29 774.318 431.631 773.892 431.886C773.466 432.142 772.993 432.27 772.472 432.27ZM783.083 432.27C782.306 432.27 781.638 431.995 781.08 431.446C780.521 430.887 780.242 430.215 780.242 429.429C780.242 428.652 780.521 427.99 781.08 427.44C781.638 426.882 782.306 426.602 783.083 426.602C783.859 426.602 784.527 426.882 785.085 427.44C785.644 427.99 785.924 428.652 785.924 429.429C785.924 429.95 785.791 430.428 785.526 430.864C785.27 431.29 784.929 431.631 784.503 431.886C784.077 432.142 783.603 432.27 783.083 432.27ZM793.708 432.27C792.931 432.27 792.263 431.995 791.705 431.446C791.146 430.887 790.867 430.215 790.867 429.429C790.867 428.652 791.146 427.99 791.705 427.44C792.263 426.882 792.931 426.602 793.708 426.602C794.484 426.602 795.152 426.882 795.71 427.44C796.269 427.99 796.549 428.652 796.549 429.429C796.549 429.95 796.416 430.428 796.151 430.864C795.895 431.29 795.554 431.631 795.128 431.886C794.702 432.142 794.228 432.27 793.708 432.27Z" fill="white"/>
<rect x="1448" y="371" width="444" height="91" rx="6" fill="#14AE5C"/>
<path d="M1478.32 410.551C1478.17 409.206 1477.55 408.165 1476.45 407.426C1475.35 406.678 1473.97 406.304 1472.3 406.304C1471.11 406.304 1470.07 406.493 1469.2 406.872C1468.33 407.241 1467.65 407.753 1467.17 408.406C1466.7 409.05 1466.46 409.784 1466.46 410.608C1466.46 411.299 1466.62 411.896 1466.94 412.398C1467.28 412.9 1467.71 413.321 1468.24 413.662C1468.78 413.993 1469.35 414.273 1469.97 414.5C1470.59 414.718 1471.18 414.898 1471.75 415.04L1474.59 415.778C1475.51 416.006 1476.47 416.313 1477.44 416.702C1478.42 417.09 1479.32 417.601 1480.15 418.236C1480.99 418.87 1481.66 419.656 1482.17 420.594C1482.69 421.531 1482.95 422.653 1482.95 423.96C1482.95 425.608 1482.53 427.071 1481.67 428.349C1480.83 429.628 1479.61 430.636 1478 431.375C1476.39 432.114 1474.46 432.483 1472.19 432.483C1470.01 432.483 1468.12 432.137 1466.53 431.446C1464.94 430.755 1463.7 429.775 1462.8 428.506C1461.9 427.227 1461.4 425.712 1461.3 423.96H1465.71C1465.79 425.011 1466.13 425.887 1466.73 426.588C1467.34 427.279 1468.11 427.795 1469.05 428.136C1469.99 428.468 1471.03 428.634 1472.16 428.634C1473.4 428.634 1474.5 428.439 1475.47 428.051C1476.44 427.653 1477.21 427.104 1477.77 426.403C1478.33 425.693 1478.61 424.865 1478.61 423.918C1478.61 423.056 1478.36 422.35 1477.87 421.801C1477.38 421.252 1476.73 420.797 1475.89 420.438C1475.07 420.078 1474.14 419.76 1473.09 419.486L1469.66 418.548C1467.33 417.914 1465.48 416.981 1464.12 415.75C1462.76 414.519 1462.09 412.89 1462.09 410.864C1462.09 409.187 1462.54 407.724 1463.45 406.474C1464.36 405.224 1465.59 404.254 1467.14 403.562C1468.7 402.862 1470.45 402.511 1472.4 402.511C1474.37 402.511 1476.11 402.857 1477.61 403.548C1479.13 404.24 1480.32 405.191 1481.19 406.403C1482.06 407.606 1482.52 408.989 1482.55 410.551H1478.32ZM1496.38 432.44C1494.23 432.44 1492.38 431.981 1490.83 431.062C1489.28 430.134 1488.09 428.832 1487.25 427.156C1486.41 425.471 1486 423.496 1486 421.233C1486 418.998 1486.41 417.028 1487.25 415.324C1488.09 413.619 1489.26 412.289 1490.77 411.332C1492.28 410.376 1494.06 409.898 1496.08 409.898C1497.31 409.898 1498.51 410.101 1499.66 410.509C1500.82 410.916 1501.85 411.555 1502.77 412.426C1503.69 413.297 1504.42 414.429 1504.95 415.821C1505.48 417.204 1505.74 418.884 1505.74 420.864V422.369H1488.4V419.188H1501.58C1501.58 418.07 1501.35 417.08 1500.9 416.219C1500.44 415.348 1499.8 414.661 1498.98 414.159C1498.17 413.657 1497.21 413.406 1496.11 413.406C1494.92 413.406 1493.88 413.7 1492.99 414.287C1492.1 414.865 1491.42 415.622 1490.94 416.56C1490.47 417.488 1490.23 418.496 1490.23 419.585V422.071C1490.23 423.529 1490.49 424.77 1491 425.793C1491.52 426.815 1492.24 427.597 1493.17 428.136C1494.1 428.667 1495.18 428.932 1496.42 428.932C1497.23 428.932 1497.96 428.818 1498.62 428.591C1499.29 428.354 1499.86 428.004 1500.34 427.54C1500.83 427.076 1501.2 426.503 1501.45 425.821L1505.47 426.545C1505.15 427.729 1504.57 428.766 1503.74 429.656C1502.91 430.537 1501.88 431.223 1500.63 431.716C1499.39 432.199 1497.97 432.44 1496.38 432.44ZM1509.57 432V410.182H1513.68V413.648H1513.91C1514.3 412.473 1515 411.55 1516.01 410.878C1517.02 410.196 1518.17 409.855 1519.45 409.855C1519.71 409.855 1520.02 409.865 1520.38 409.884C1520.75 409.902 1521.04 409.926 1521.25 409.955V414.017C1521.08 413.97 1520.78 413.918 1520.34 413.861C1519.9 413.795 1519.47 413.761 1519.03 413.761C1518.03 413.761 1517.13 413.974 1516.35 414.401C1515.57 414.817 1514.96 415.4 1514.5 416.148C1514.05 416.886 1513.82 417.729 1513.82 418.676V432H1509.57ZM1543.37 410.182L1535.46 432H1530.92L1522.99 410.182H1527.55L1533.08 426.972H1533.3L1538.81 410.182H1543.37ZM1546.49 432V410.182H1550.73V432H1546.49ZM1548.63 406.815C1547.89 406.815 1547.26 406.569 1546.73 406.077C1546.21 405.575 1545.95 404.978 1545.95 404.287C1545.95 403.586 1546.21 402.99 1546.73 402.497C1547.26 401.995 1547.89 401.744 1548.63 401.744C1549.37 401.744 1550 401.995 1550.52 402.497C1551.05 402.99 1551.31 403.586 1551.31 404.287C1551.31 404.978 1551.05 405.575 1550.52 406.077C1550 406.569 1549.37 406.815 1548.63 406.815ZM1564.76 432.44C1562.64 432.44 1560.83 431.962 1559.3 431.006C1557.79 430.04 1556.62 428.709 1555.81 427.014C1554.99 425.319 1554.59 423.378 1554.59 421.19C1554.59 418.974 1555 417.019 1555.84 415.324C1556.67 413.619 1557.84 412.289 1559.36 411.332C1560.87 410.376 1562.66 409.898 1564.71 409.898C1566.37 409.898 1567.85 410.205 1569.15 410.821C1570.44 411.427 1571.49 412.279 1572.28 413.378C1573.09 414.476 1573.57 415.759 1573.72 417.227H1569.59C1569.36 416.205 1568.84 415.324 1568.02 414.585C1567.22 413.847 1566.14 413.477 1564.78 413.477C1563.6 413.477 1562.56 413.79 1561.67 414.415C1560.79 415.03 1560.11 415.911 1559.61 417.057C1559.12 418.193 1558.88 419.538 1558.88 421.091C1558.88 422.682 1559.12 424.055 1559.6 425.21C1560.08 426.366 1560.77 427.26 1561.65 427.895C1562.54 428.529 1563.58 428.847 1564.78 428.847C1565.59 428.847 1566.32 428.7 1566.97 428.406C1567.64 428.103 1568.19 427.672 1568.63 427.114C1569.09 426.555 1569.41 425.883 1569.59 425.097H1573.72C1573.57 426.508 1573.11 427.767 1572.34 428.875C1571.57 429.983 1570.55 430.854 1569.26 431.489C1567.98 432.123 1566.48 432.44 1564.76 432.44ZM1586.78 432.44C1584.64 432.44 1582.78 431.981 1581.23 431.062C1579.69 430.134 1578.49 428.832 1577.65 427.156C1576.82 425.471 1576.4 423.496 1576.4 421.233C1576.4 418.998 1576.82 417.028 1577.65 415.324C1578.49 413.619 1579.67 412.289 1581.17 411.332C1582.69 410.376 1584.46 409.898 1586.49 409.898C1587.72 409.898 1588.91 410.101 1590.07 410.509C1591.22 410.916 1592.26 411.555 1593.18 412.426C1594.1 413.297 1594.82 414.429 1595.35 415.821C1595.88 417.204 1596.15 418.884 1596.15 420.864V422.369H1578.8V419.188H1591.98C1591.98 418.07 1591.76 417.08 1591.3 416.219C1590.85 415.348 1590.21 414.661 1589.38 414.159C1588.57 413.657 1587.61 413.406 1586.52 413.406C1585.32 413.406 1584.28 413.7 1583.39 414.287C1582.51 414.865 1581.83 415.622 1581.34 416.56C1580.87 417.488 1580.63 418.496 1580.63 419.585V422.071C1580.63 423.529 1580.89 424.77 1581.4 425.793C1581.92 426.815 1582.65 427.597 1583.57 428.136C1584.5 428.667 1585.59 428.932 1586.83 428.932C1587.63 428.932 1588.37 428.818 1589.03 428.591C1589.69 428.354 1590.27 428.004 1590.75 427.54C1591.23 427.076 1591.6 426.503 1591.86 425.821L1595.88 426.545C1595.55 427.729 1594.98 428.766 1594.14 429.656C1593.32 430.537 1592.28 431.223 1591.03 431.716C1589.79 432.199 1588.38 432.44 1586.78 432.44ZM1616.33 415.509L1612.48 416.19C1612.32 415.698 1612.06 415.229 1611.71 414.784C1611.37 414.339 1610.91 413.974 1610.32 413.69C1609.73 413.406 1609 413.264 1608.12 413.264C1606.91 413.264 1605.91 413.534 1605.11 414.074C1604.3 414.604 1603.9 415.291 1603.9 416.134C1603.9 416.863 1604.17 417.45 1604.71 417.895C1605.25 418.34 1606.12 418.705 1607.32 418.989L1610.79 419.784C1612.8 420.248 1614.29 420.963 1615.28 421.929C1616.26 422.895 1616.75 424.15 1616.75 425.693C1616.75 427 1616.37 428.165 1615.62 429.188C1614.87 430.201 1613.82 430.996 1612.48 431.574C1611.14 432.152 1609.59 432.44 1607.83 432.44C1605.39 432.44 1603.4 431.92 1601.85 430.878C1600.31 429.827 1599.36 428.335 1599.01 426.403L1603.12 425.778C1603.37 426.848 1603.9 427.658 1604.69 428.207C1605.49 428.747 1606.53 429.017 1607.8 429.017C1609.2 429.017 1610.31 428.728 1611.14 428.151C1611.98 427.563 1612.39 426.848 1612.39 426.006C1612.39 425.324 1612.14 424.751 1611.63 424.287C1611.12 423.823 1610.35 423.473 1609.31 423.236L1605.62 422.426C1603.58 421.962 1602.08 421.223 1601.1 420.21C1600.13 419.197 1599.65 417.914 1599.65 416.361C1599.65 415.073 1600.01 413.946 1600.73 412.98C1601.45 412.014 1602.44 411.261 1603.71 410.722C1604.98 410.172 1606.44 409.898 1608.07 409.898C1610.43 409.898 1612.29 410.409 1613.64 411.432C1615 412.445 1615.89 413.804 1616.33 415.509ZM1654.75 412.369H1650.32C1650.15 411.422 1649.83 410.589 1649.37 409.869C1648.9 409.15 1648.34 408.539 1647.66 408.037C1646.99 407.535 1646.24 407.156 1645.41 406.901C1644.58 406.645 1643.71 406.517 1642.78 406.517C1641.1 406.517 1639.6 406.938 1638.27 407.781C1636.96 408.624 1635.92 409.86 1635.15 411.489C1634.39 413.117 1634.01 415.106 1634.01 417.455C1634.01 419.822 1634.39 421.82 1635.15 423.449C1635.92 425.078 1636.96 426.309 1638.29 427.142C1639.61 427.975 1641.11 428.392 1642.76 428.392C1643.68 428.392 1644.55 428.269 1645.38 428.023C1646.21 427.767 1646.96 427.393 1647.64 426.901C1648.31 426.408 1648.88 425.807 1649.34 425.097C1649.81 424.377 1650.14 423.553 1650.32 422.625L1654.75 422.639C1654.52 424.069 1654.06 425.385 1653.37 426.588C1652.7 427.781 1651.84 428.813 1650.77 429.685C1649.72 430.546 1648.52 431.214 1647.17 431.688C1645.81 432.161 1644.34 432.398 1642.74 432.398C1640.22 432.398 1637.97 431.801 1636 430.608C1634.03 429.405 1632.48 427.687 1631.34 425.452C1630.22 423.217 1629.65 420.551 1629.65 417.455C1629.65 414.348 1630.22 411.683 1631.36 409.457C1632.49 407.223 1634.05 405.509 1636.02 404.315C1637.99 403.113 1640.23 402.511 1642.74 402.511C1644.28 402.511 1645.72 402.734 1647.05 403.179C1648.4 403.615 1649.61 404.259 1650.68 405.111C1651.75 405.954 1652.63 406.986 1653.33 408.207C1654.03 409.42 1654.51 410.807 1654.75 412.369ZM1658.78 432V410.182H1662.89V413.648H1663.12C1663.51 412.473 1664.21 411.55 1665.22 410.878C1666.23 410.196 1667.38 409.855 1668.66 409.855C1668.92 409.855 1669.23 409.865 1669.59 409.884C1669.96 409.902 1670.25 409.926 1670.46 409.955V414.017C1670.29 413.97 1669.99 413.918 1669.55 413.861C1669.11 413.795 1668.68 413.761 1668.24 413.761C1667.24 413.761 1666.34 413.974 1665.56 414.401C1664.78 414.817 1664.17 415.4 1663.71 416.148C1663.26 416.886 1663.03 417.729 1663.03 418.676V432H1658.78ZM1681.88 432.44C1679.73 432.44 1677.88 431.981 1676.32 431.062C1674.78 430.134 1673.59 428.832 1672.74 427.156C1671.91 425.471 1671.49 423.496 1671.49 421.233C1671.49 418.998 1671.91 417.028 1672.74 415.324C1673.59 413.619 1674.76 412.289 1676.27 411.332C1677.78 410.376 1679.55 409.898 1681.58 409.898C1682.81 409.898 1684 410.101 1685.16 410.509C1686.31 410.916 1687.35 411.555 1688.27 412.426C1689.19 413.297 1689.91 414.429 1690.44 415.821C1690.97 417.204 1691.24 418.884 1691.24 420.864V422.369H1673.89V419.188H1687.08C1687.08 418.07 1686.85 417.08 1686.39 416.219C1685.94 415.348 1685.3 414.661 1684.48 414.159C1683.66 413.657 1682.71 413.406 1681.61 413.406C1680.41 413.406 1679.37 413.7 1678.48 414.287C1677.6 414.865 1676.92 415.622 1676.44 416.56C1675.96 417.488 1675.73 418.496 1675.73 419.585V422.071C1675.73 423.529 1675.98 424.77 1676.49 425.793C1677.01 426.815 1677.74 427.597 1678.67 428.136C1679.59 428.667 1680.68 428.932 1681.92 428.932C1682.72 428.932 1683.46 428.818 1684.12 428.591C1684.78 428.354 1685.36 428.004 1685.84 427.54C1686.32 427.076 1686.69 426.503 1686.95 425.821L1690.97 426.545C1690.65 427.729 1690.07 428.766 1689.24 429.656C1688.41 430.537 1687.37 431.223 1686.12 431.716C1684.88 432.199 1683.47 432.44 1681.88 432.44ZM1703.24 432.426C1701.48 432.426 1699.9 431.976 1698.52 431.077C1697.15 430.168 1696.07 428.875 1695.28 427.199C1694.51 425.513 1694.12 423.491 1694.12 421.134C1694.12 418.776 1694.51 416.759 1695.3 415.082C1696.09 413.406 1697.18 412.123 1698.56 411.233C1699.95 410.343 1701.51 409.898 1703.27 409.898C1704.62 409.898 1705.71 410.125 1706.53 410.58C1707.37 411.025 1708.01 411.545 1708.47 412.142C1708.93 412.739 1709.29 413.264 1709.54 413.719H1709.8V402.909H1714.05V432H1709.9V428.605H1709.54C1709.29 429.069 1708.92 429.599 1708.44 430.196C1707.96 430.793 1707.31 431.313 1706.48 431.759C1705.64 432.204 1704.56 432.426 1703.24 432.426ZM1704.18 428.804C1705.4 428.804 1706.43 428.482 1707.27 427.838C1708.12 427.185 1708.77 426.28 1709.2 425.125C1709.65 423.97 1709.87 422.625 1709.87 421.091C1709.87 419.576 1709.65 418.25 1709.22 417.114C1708.78 415.977 1708.14 415.092 1707.3 414.457C1706.46 413.823 1705.42 413.506 1704.18 413.506C1702.9 413.506 1701.83 413.837 1700.98 414.5C1700.13 415.163 1699.48 416.067 1699.05 417.213C1698.62 418.359 1698.41 419.652 1698.41 421.091C1698.41 422.549 1698.63 423.861 1699.06 425.026C1699.5 426.19 1700.14 427.114 1700.99 427.795C1701.86 428.468 1702.92 428.804 1704.18 428.804ZM1719.23 432V410.182H1723.48V432H1719.23ZM1721.37 406.815C1720.64 406.815 1720 406.569 1719.47 406.077C1718.95 405.575 1718.69 404.978 1718.69 404.287C1718.69 403.586 1718.95 402.99 1719.47 402.497C1720 401.995 1720.64 401.744 1721.37 401.744C1722.11 401.744 1722.74 401.995 1723.26 402.497C1723.79 402.99 1724.06 403.586 1724.06 404.287C1724.06 404.978 1723.79 405.575 1723.26 406.077C1722.74 406.569 1722.11 406.815 1721.37 406.815ZM1738.49 410.182V413.591H1726.58V410.182H1738.49ZM1729.77 404.955H1734.02V425.594C1734.02 426.418 1734.14 427.038 1734.39 427.455C1734.64 427.862 1734.95 428.141 1735.34 428.293C1735.74 428.435 1736.17 428.506 1736.63 428.506C1736.98 428.506 1737.27 428.482 1737.53 428.435C1737.78 428.387 1737.98 428.349 1738.13 428.321L1738.89 431.83C1738.65 431.924 1738.3 432.019 1737.84 432.114C1737.39 432.218 1736.82 432.275 1736.14 432.284C1735.02 432.303 1733.98 432.104 1733.01 431.688C1732.05 431.271 1731.26 430.627 1730.67 429.756C1730.07 428.884 1729.77 427.791 1729.77 426.474V404.955ZM1753.39 401.545L1744.02 436.375H1740.22L1749.6 401.545H1753.39ZM1766.31 410.182V413.591H1754.39V410.182H1766.31ZM1757.58 404.955H1761.83V425.594C1761.83 426.418 1761.95 427.038 1762.2 427.455C1762.45 427.862 1762.76 428.141 1763.15 428.293C1763.55 428.435 1763.98 428.506 1764.44 428.506C1764.79 428.506 1765.08 428.482 1765.34 428.435C1765.6 428.387 1765.79 428.349 1765.94 428.321L1766.7 431.83C1766.46 431.924 1766.11 432.019 1765.65 432.114C1765.2 432.218 1764.63 432.275 1763.95 432.284C1762.83 432.303 1761.79 432.104 1760.82 431.688C1759.86 431.271 1759.08 430.627 1758.48 429.756C1757.88 428.884 1757.58 427.791 1757.58 426.474V404.955ZM1779.29 432.44C1777.14 432.44 1775.29 431.981 1773.74 431.062C1772.19 430.134 1771 428.832 1770.16 427.156C1769.33 425.471 1768.91 423.496 1768.91 421.233C1768.91 418.998 1769.33 417.028 1770.16 415.324C1771 413.619 1772.18 412.289 1773.68 411.332C1775.2 410.376 1776.97 409.898 1778.99 409.898C1780.23 409.898 1781.42 410.101 1782.57 410.509C1783.73 410.916 1784.77 411.555 1785.68 412.426C1786.6 413.297 1787.33 414.429 1787.86 415.821C1788.39 417.204 1788.65 418.884 1788.65 420.864V422.369H1771.31V419.188H1784.49C1784.49 418.07 1784.26 417.08 1783.81 416.219C1783.35 415.348 1782.72 414.661 1781.89 414.159C1781.08 413.657 1780.12 413.406 1779.02 413.406C1777.83 413.406 1776.79 413.7 1775.9 414.287C1775.02 414.865 1774.34 415.622 1773.85 416.56C1773.38 417.488 1773.14 418.496 1773.14 419.585V422.071C1773.14 423.529 1773.4 424.77 1773.91 425.793C1774.43 426.815 1775.15 427.597 1776.08 428.136C1777.01 428.667 1778.09 428.932 1779.34 428.932C1780.14 428.932 1780.87 428.818 1781.54 428.591C1782.2 428.354 1782.77 428.004 1783.26 427.54C1783.74 427.076 1784.11 426.503 1784.36 425.821L1788.38 426.545C1788.06 427.729 1787.48 428.766 1786.65 429.656C1785.83 430.537 1784.79 431.223 1783.54 431.716C1782.3 432.199 1780.88 432.44 1779.29 432.44ZM1798.84 432.483C1797.45 432.483 1796.2 432.227 1795.09 431.716C1793.97 431.195 1793.08 430.442 1792.43 429.457C1791.78 428.473 1791.46 427.265 1791.46 425.835C1791.46 424.604 1791.7 423.591 1792.17 422.795C1792.65 422 1793.29 421.37 1794.09 420.906C1794.9 420.442 1795.8 420.092 1796.79 419.855C1797.78 419.618 1798.8 419.438 1799.83 419.315C1801.14 419.164 1802.2 419.041 1803.01 418.946C1803.83 418.842 1804.42 418.676 1804.79 418.449C1805.16 418.222 1805.34 417.852 1805.34 417.341V417.241C1805.34 416.001 1804.99 415.04 1804.29 414.358C1803.6 413.676 1802.57 413.335 1801.19 413.335C1799.76 413.335 1798.64 413.652 1797.81 414.287C1797 414.912 1796.43 415.608 1796.12 416.375L1792.13 415.466C1792.6 414.14 1793.3 413.07 1794.2 412.256C1795.12 411.432 1796.18 410.835 1797.37 410.466C1798.57 410.087 1799.82 409.898 1801.14 409.898C1802.01 409.898 1802.93 410.002 1803.91 410.21C1804.89 410.409 1805.81 410.778 1806.66 411.318C1807.52 411.858 1808.23 412.63 1808.78 413.634C1809.33 414.628 1809.6 415.92 1809.6 417.511V432H1805.45V429.017H1805.28C1805.01 429.566 1804.6 430.106 1804.05 430.636C1803.5 431.167 1802.79 431.607 1801.93 431.957C1801.07 432.308 1800.04 432.483 1798.84 432.483ZM1799.76 429.074C1800.93 429.074 1801.94 428.842 1802.77 428.378C1803.61 427.914 1804.25 427.308 1804.69 426.56C1805.13 425.802 1805.35 424.992 1805.35 424.131V421.318C1805.2 421.47 1804.91 421.612 1804.47 421.744C1804.05 421.867 1803.56 421.976 1803.01 422.071C1802.46 422.156 1801.93 422.237 1801.41 422.312C1800.89 422.379 1800.45 422.436 1800.1 422.483C1799.28 422.587 1798.52 422.762 1797.84 423.009C1797.17 423.255 1796.63 423.61 1796.22 424.074C1795.82 424.528 1795.62 425.134 1795.62 425.892C1795.62 426.943 1796.01 427.739 1796.79 428.278C1797.57 428.809 1798.56 429.074 1799.76 429.074ZM1814.38 432V410.182H1818.46V413.733H1818.73C1819.18 412.53 1819.92 411.593 1820.96 410.92C1821.99 410.239 1823.22 409.898 1824.66 409.898C1826.12 409.898 1827.34 410.239 1828.33 410.92C1829.32 411.602 1830.06 412.54 1830.53 413.733H1830.76C1831.28 412.568 1832.11 411.64 1833.24 410.949C1834.38 410.248 1835.73 409.898 1837.31 409.898C1839.28 409.898 1840.9 410.518 1842.15 411.759C1843.41 412.999 1844.04 414.869 1844.04 417.369V432H1839.79V417.767C1839.79 416.29 1839.39 415.22 1838.58 414.557C1837.78 413.894 1836.82 413.562 1835.7 413.562C1834.32 413.562 1833.24 413.989 1832.48 414.841C1831.71 415.684 1831.33 416.768 1831.33 418.094V432H1827.09V417.497C1827.09 416.313 1826.72 415.362 1825.98 414.642C1825.25 413.922 1824.28 413.562 1823.1 413.562C1822.3 413.562 1821.55 413.776 1820.87 414.202C1820.2 414.618 1819.65 415.201 1819.24 415.949C1818.83 416.697 1818.63 417.563 1818.63 418.548V432H1814.38ZM1851.69 432.27C1850.91 432.27 1850.25 431.995 1849.69 431.446C1849.13 430.887 1848.85 430.215 1848.85 429.429C1848.85 428.652 1849.13 427.99 1849.69 427.44C1850.25 426.882 1850.91 426.602 1851.69 426.602C1852.47 426.602 1853.14 426.882 1853.69 427.44C1854.25 427.99 1854.53 428.652 1854.53 429.429C1854.53 429.95 1854.4 430.428 1854.13 430.864C1853.88 431.29 1853.54 431.631 1853.11 431.886C1852.69 432.142 1852.21 432.27 1851.69 432.27ZM1862.3 432.27C1861.53 432.27 1860.86 431.995 1860.3 431.446C1859.74 430.887 1859.46 430.215 1859.46 429.429C1859.46 428.652 1859.74 427.99 1860.3 427.44C1860.86 426.882 1861.53 426.602 1862.3 426.602C1863.08 426.602 1863.75 426.882 1864.31 427.44C1864.86 427.99 1865.14 428.652 1865.14 429.429C1865.14 429.95 1865.01 430.428 1864.75 430.864C1864.49 431.29 1864.15 431.631 1863.72 431.886C1863.3 432.142 1862.82 432.27 1862.3 432.27ZM1872.93 432.27C1872.15 432.27 1871.48 431.995 1870.92 431.446C1870.37 430.887 1870.09 430.215 1870.09 429.429C1870.09 428.652 1870.37 427.99 1870.92 427.44C1871.48 426.882 1872.15 426.602 1872.93 426.602C1873.7 426.602 1874.37 426.882 1874.93 427.44C1875.49 427.99 1875.77 428.652 1875.77 429.429C1875.77 429.95 1875.64 430.428 1875.37 430.864C1875.11 431.29 1874.77 431.631 1874.35 431.886C1873.92 432.142 1873.45 432.27 1872.93 432.27Z" fill="white"/>
<rect x="548" y="530" width="266" height="91" rx="6" fill="#AFF4C6"/>
<path d="M615.771 591V561.909H626.14C628.404 561.909 630.279 562.321 631.765 563.145C633.252 563.969 634.365 565.096 635.103 566.526C635.842 567.946 636.211 569.546 636.211 571.327C636.211 573.116 635.837 574.726 635.089 576.156C634.351 577.577 633.233 578.704 631.737 579.537C630.25 580.361 628.38 580.773 626.126 580.773H618.995V577.051H625.728C627.158 577.051 628.318 576.805 629.209 576.312C630.099 575.811 630.752 575.129 631.169 574.267C631.585 573.405 631.794 572.425 631.794 571.327C631.794 570.228 631.585 569.253 631.169 568.401C630.752 567.548 630.094 566.881 629.194 566.398C628.304 565.915 627.13 565.673 625.672 565.673H620.16V591H615.771ZM656.343 569.551C656.192 568.206 655.567 567.165 654.468 566.426C653.37 565.678 651.987 565.304 650.321 565.304C649.128 565.304 648.095 565.493 647.224 565.872C646.353 566.241 645.676 566.753 645.193 567.406C644.719 568.05 644.483 568.784 644.483 569.608C644.483 570.299 644.644 570.896 644.966 571.398C645.297 571.9 645.728 572.321 646.258 572.662C646.798 572.993 647.376 573.273 647.991 573.5C648.607 573.718 649.199 573.898 649.767 574.04L652.608 574.778C653.536 575.006 654.487 575.313 655.463 575.702C656.438 576.09 657.342 576.601 658.176 577.236C659.009 577.87 659.682 578.656 660.193 579.594C660.714 580.531 660.974 581.653 660.974 582.96C660.974 584.608 660.548 586.071 659.696 587.349C658.853 588.628 657.627 589.636 656.017 590.375C654.416 591.114 652.48 591.483 650.207 591.483C648.029 591.483 646.145 591.137 644.554 590.446C642.963 589.755 641.717 588.775 640.818 587.506C639.918 586.227 639.421 584.712 639.326 582.96H643.73C643.815 584.011 644.156 584.887 644.753 585.588C645.359 586.279 646.13 586.795 647.068 587.136C648.015 587.468 649.052 587.634 650.179 587.634C651.419 587.634 652.522 587.439 653.488 587.051C654.464 586.653 655.231 586.104 655.789 585.403C656.348 584.693 656.628 583.865 656.628 582.918C656.628 582.056 656.381 581.35 655.889 580.801C655.406 580.252 654.748 579.797 653.914 579.438C653.091 579.078 652.158 578.76 651.116 578.486L647.679 577.548C645.349 576.914 643.503 575.981 642.139 574.75C640.785 573.519 640.108 571.89 640.108 569.864C640.108 568.187 640.562 566.724 641.471 565.474C642.38 564.224 643.611 563.254 645.164 562.562C646.717 561.862 648.469 561.511 650.42 561.511C652.39 561.511 654.128 561.857 655.633 562.548C657.148 563.24 658.342 564.191 659.213 565.403C660.084 566.606 660.539 567.989 660.576 569.551H656.343ZM667.562 591H662.903L673.372 561.909H678.443L688.912 591H684.253L676.028 567.193H675.801L667.562 591ZM668.343 579.608H683.457V583.301H668.343V579.608ZM701.939 591V561.909H712.308C714.562 561.909 716.432 562.297 717.919 563.074C719.415 563.85 720.532 564.925 721.271 566.298C722.01 567.662 722.379 569.239 722.379 571.028C722.379 572.809 722.005 574.376 721.257 575.73C720.518 577.075 719.401 578.121 717.904 578.869C716.418 579.617 714.547 579.991 712.294 579.991H704.439V576.213H711.896C713.316 576.213 714.472 576.009 715.362 575.602C716.261 575.195 716.92 574.603 717.336 573.827C717.753 573.05 717.961 572.117 717.961 571.028C717.961 569.93 717.748 568.978 717.322 568.173C716.905 567.368 716.247 566.753 715.348 566.327C714.457 565.891 713.288 565.673 711.839 565.673H706.328V591H701.939ZM716.299 577.875L723.487 591H718.487L711.441 577.875H716.299ZM726.84 591V561.909H737.209C739.463 561.909 741.333 562.297 742.82 563.074C744.316 563.85 745.434 564.925 746.172 566.298C746.911 567.662 747.28 569.239 747.28 571.028C747.28 572.809 746.906 574.376 746.158 575.73C745.419 577.075 744.302 578.121 742.806 578.869C741.319 579.617 739.449 579.991 737.195 579.991H729.34V576.213H736.797C738.218 576.213 739.373 576.009 740.263 575.602C741.163 575.195 741.821 574.603 742.237 573.827C742.654 573.05 742.862 572.117 742.862 571.028C742.862 569.93 742.649 568.978 742.223 568.173C741.807 567.368 741.148 566.753 740.249 566.327C739.359 565.891 738.189 565.673 736.74 565.673H731.229V591H726.84ZM741.201 577.875L748.388 591H743.388L736.343 577.875H741.201Z" fill="black" fill-opacity="0.8"/>
<rect x="776" y="701" width="507" height="103" rx="6" fill="#FFA629"/>
<path d="M797.816 768V738.909H802.205V764.222H815.387V768H797.816ZM835.381 746.551C835.229 745.206 834.604 744.165 833.506 743.426C832.407 742.678 831.025 742.304 829.358 742.304C828.165 742.304 827.133 742.493 826.261 742.872C825.39 743.241 824.713 743.753 824.23 744.406C823.757 745.05 823.52 745.784 823.52 746.608C823.52 747.299 823.681 747.896 824.003 748.398C824.334 748.9 824.765 749.321 825.295 749.662C825.835 749.993 826.413 750.273 827.028 750.5C827.644 750.718 828.236 750.898 828.804 751.04L831.645 751.778C832.573 752.006 833.525 752.313 834.5 752.702C835.475 753.09 836.38 753.601 837.213 754.236C838.046 754.87 838.719 755.656 839.23 756.594C839.751 757.531 840.011 758.653 840.011 759.96C840.011 761.608 839.585 763.071 838.733 764.349C837.89 765.628 836.664 766.636 835.054 767.375C833.454 768.114 831.517 768.483 829.244 768.483C827.066 768.483 825.182 768.137 823.591 767.446C822 766.755 820.755 765.775 819.855 764.506C818.955 763.227 818.458 761.712 818.364 759.96H822.767C822.852 761.011 823.193 761.887 823.79 762.588C824.396 763.279 825.168 763.795 826.105 764.136C827.052 764.468 828.089 764.634 829.216 764.634C830.456 764.634 831.56 764.439 832.526 764.051C833.501 763.653 834.268 763.104 834.827 762.403C835.385 761.693 835.665 760.865 835.665 759.918C835.665 759.056 835.419 758.35 834.926 757.801C834.443 757.252 833.785 756.797 832.952 756.438C832.128 756.078 831.195 755.76 830.153 755.486L826.716 754.548C824.386 753.914 822.54 752.981 821.176 751.75C819.822 750.519 819.145 748.89 819.145 746.864C819.145 745.187 819.599 743.724 820.508 742.474C821.418 741.224 822.649 740.254 824.202 739.562C825.755 738.862 827.507 738.511 829.457 738.511C831.427 738.511 833.165 738.857 834.67 739.548C836.186 740.24 837.379 741.191 838.25 742.403C839.121 743.606 839.576 744.989 839.614 746.551H835.381ZM854.082 768V738.909H864.452C866.715 738.909 868.59 739.321 870.077 740.145C871.563 740.969 872.676 742.096 873.415 743.526C874.153 744.946 874.523 746.546 874.523 748.327C874.523 750.116 874.149 751.726 873.4 753.156C872.662 754.577 871.544 755.704 870.048 756.537C868.561 757.361 866.691 757.773 864.437 757.773H857.307V754.051H864.04C865.47 754.051 866.63 753.805 867.52 753.312C868.41 752.811 869.063 752.129 869.48 751.267C869.897 750.405 870.105 749.425 870.105 748.327C870.105 747.228 869.897 746.253 869.48 745.401C869.063 744.548 868.405 743.881 867.506 743.398C866.615 742.915 865.441 742.673 863.983 742.673H858.471V768H854.082ZM894.655 746.551C894.503 745.206 893.878 744.165 892.78 743.426C891.681 742.678 890.299 742.304 888.632 742.304C887.439 742.304 886.407 742.493 885.535 742.872C884.664 743.241 883.987 743.753 883.504 744.406C883.031 745.05 882.794 745.784 882.794 746.608C882.794 747.299 882.955 747.896 883.277 748.398C883.608 748.9 884.039 749.321 884.569 749.662C885.109 749.993 885.687 750.273 886.302 750.5C886.918 750.718 887.51 750.898 888.078 751.04L890.919 751.778C891.847 752.006 892.799 752.313 893.774 752.702C894.749 753.09 895.654 753.601 896.487 754.236C897.32 754.87 897.993 755.656 898.504 756.594C899.025 757.531 899.285 758.653 899.285 759.96C899.285 761.608 898.859 763.071 898.007 764.349C897.164 765.628 895.938 766.636 894.328 767.375C892.728 768.114 890.791 768.483 888.518 768.483C886.34 768.483 884.456 768.137 882.865 767.446C881.274 766.755 880.029 765.775 879.129 764.506C878.229 763.227 877.732 761.712 877.638 759.96H882.041C882.126 761.011 882.467 761.887 883.064 762.588C883.67 763.279 884.442 763.795 885.379 764.136C886.326 764.468 887.363 764.634 888.49 764.634C889.73 764.634 890.834 764.439 891.8 764.051C892.775 763.653 893.542 763.104 894.101 762.403C894.659 761.693 894.939 760.865 894.939 759.918C894.939 759.056 894.693 758.35 894.2 757.801C893.717 757.252 893.059 756.797 892.226 756.438C891.402 756.078 890.469 755.76 889.427 755.486L885.99 754.548C883.66 753.914 881.814 752.981 880.45 751.75C879.096 750.519 878.419 748.89 878.419 746.864C878.419 745.187 878.873 743.724 879.783 742.474C880.692 741.224 881.923 740.254 883.476 739.562C885.029 738.862 886.781 738.511 888.731 738.511C890.701 738.511 892.439 738.857 893.944 739.548C895.46 740.24 896.653 741.191 897.524 742.403C898.395 743.606 898.85 744.989 898.888 746.551H894.655ZM924.052 758.568H928.371L931.41 762.531L932.845 764.293L937.689 770.614H933.2L929.961 766.395L928.853 764.861L924.052 758.568ZM938.626 753.455C938.626 756.561 938.058 759.231 936.922 761.466C935.785 763.691 934.228 765.405 932.248 766.608C930.279 767.801 928.039 768.398 925.53 768.398C923.011 768.398 920.762 767.801 918.782 766.608C916.813 765.405 915.26 763.687 914.123 761.452C912.987 759.217 912.419 756.551 912.419 753.455C912.419 750.348 912.987 747.683 914.123 745.457C915.26 743.223 916.813 741.509 918.782 740.315C920.762 739.113 923.011 738.511 925.53 738.511C928.039 738.511 930.279 739.113 932.248 740.315C934.228 741.509 935.785 743.223 936.922 745.457C938.058 747.683 938.626 750.348 938.626 753.455ZM934.28 753.455C934.28 751.087 933.896 749.094 933.129 747.474C932.371 745.846 931.33 744.615 930.004 743.781C928.688 742.938 927.196 742.517 925.53 742.517C923.853 742.517 922.357 742.938 921.041 743.781C919.725 744.615 918.683 745.846 917.916 747.474C917.158 749.094 916.78 751.087 916.78 753.455C916.78 755.822 917.158 757.82 917.916 759.449C918.683 761.068 919.725 762.299 921.041 763.142C922.357 763.975 923.853 764.392 925.53 764.392C927.196 764.392 928.688 763.975 930.004 763.142C931.33 762.299 932.371 761.068 933.129 759.449C933.896 757.82 934.28 755.822 934.28 753.455ZM956.699 758.952V746.182H960.96V768H956.784V764.222H956.557C956.055 765.386 955.25 766.357 954.142 767.134C953.043 767.901 951.675 768.284 950.037 768.284C948.635 768.284 947.395 767.976 946.315 767.361C945.245 766.736 944.402 765.812 943.787 764.591C943.181 763.369 942.878 761.859 942.878 760.06V746.182H947.125V759.548C947.125 761.035 947.537 762.219 948.361 763.099C949.184 763.98 950.254 764.42 951.571 764.42C952.366 764.42 953.157 764.222 953.943 763.824C954.738 763.426 955.397 762.825 955.917 762.02C956.448 761.215 956.708 760.192 956.699 758.952ZM975.19 768.44C973.04 768.44 971.189 767.981 969.636 767.062C968.093 766.134 966.899 764.832 966.057 763.156C965.223 761.471 964.807 759.496 964.807 757.233C964.807 754.998 965.223 753.028 966.057 751.324C966.899 749.619 968.074 748.289 969.579 747.332C971.094 746.376 972.865 745.898 974.892 745.898C976.123 745.898 977.316 746.101 978.471 746.509C979.627 746.916 980.664 747.555 981.582 748.426C982.501 749.297 983.225 750.429 983.755 751.821C984.286 753.204 984.551 754.884 984.551 756.864V758.369H967.207V755.188H980.389C980.389 754.07 980.162 753.08 979.707 752.219C979.253 751.348 978.613 750.661 977.79 750.159C976.975 749.657 976.019 749.406 974.92 749.406C973.727 749.406 972.685 749.7 971.795 750.287C970.915 750.865 970.233 751.622 969.75 752.56C969.276 753.488 969.04 754.496 969.04 755.585V758.071C969.04 759.529 969.295 760.77 969.807 761.793C970.327 762.815 971.052 763.597 971.98 764.136C972.908 764.667 973.992 764.932 975.233 764.932C976.038 764.932 976.772 764.818 977.434 764.591C978.097 764.354 978.67 764.004 979.153 763.54C979.636 763.076 980.005 762.503 980.261 761.821L984.281 762.545C983.959 763.729 983.381 764.766 982.548 765.656C981.724 766.537 980.687 767.223 979.437 767.716C978.197 768.199 976.781 768.44 975.19 768.44ZM1002.2 758.952V746.182H1006.47V768H1002.29V764.222H1002.06C1001.56 765.386 1000.76 766.357 999.647 767.134C998.549 767.901 997.181 768.284 995.542 768.284C994.141 768.284 992.9 767.976 991.821 767.361C990.751 766.736 989.908 765.812 989.292 764.591C988.686 763.369 988.383 761.859 988.383 760.06V746.182H992.63V759.548C992.63 761.035 993.042 762.219 993.866 763.099C994.69 763.98 995.76 764.42 997.076 764.42C997.872 764.42 998.663 764.222 999.449 763.824C1000.24 763.426 1000.9 762.825 1001.42 762.02C1001.95 761.215 1002.21 760.192 1002.2 758.952ZM1020.7 768.44C1018.55 768.44 1016.69 767.981 1015.14 767.062C1013.6 766.134 1012.4 764.832 1011.56 763.156C1010.73 761.471 1010.31 759.496 1010.31 757.233C1010.31 754.998 1010.73 753.028 1011.56 751.324C1012.4 749.619 1013.58 748.289 1015.08 747.332C1016.6 746.376 1018.37 745.898 1020.4 745.898C1021.63 745.898 1022.82 746.101 1023.98 746.509C1025.13 746.916 1026.17 747.555 1027.09 748.426C1028.01 749.297 1028.73 750.429 1029.26 751.821C1029.79 753.204 1030.06 754.884 1030.06 756.864V758.369H1012.71V755.188H1025.89C1025.89 754.07 1025.67 753.08 1025.21 752.219C1024.76 751.348 1024.12 750.661 1023.3 750.159C1022.48 749.657 1021.52 749.406 1020.43 749.406C1019.23 749.406 1018.19 749.7 1017.3 750.287C1016.42 750.865 1015.74 751.622 1015.26 752.56C1014.78 753.488 1014.55 754.496 1014.55 755.585V758.071C1014.55 759.529 1014.8 760.77 1015.31 761.793C1015.83 762.815 1016.56 763.597 1017.49 764.136C1018.41 764.667 1019.5 764.932 1020.74 764.932C1021.54 764.932 1022.28 764.818 1022.94 764.591C1023.6 764.354 1024.18 764.004 1024.66 763.54C1025.14 763.076 1025.51 762.503 1025.77 761.821L1029.79 762.545C1029.46 763.729 1028.89 764.766 1028.05 765.656C1027.23 766.537 1026.19 767.223 1024.94 767.716C1023.7 768.199 1022.29 768.44 1020.7 768.44ZM1056.45 751.608V755.301H1043.55V751.608H1056.45ZM1071.28 768V738.909H1081.65C1083.91 738.909 1085.78 739.321 1087.27 740.145C1088.76 740.969 1089.87 742.096 1090.61 743.526C1091.35 744.946 1091.72 746.546 1091.72 748.327C1091.72 750.116 1091.34 751.726 1090.6 753.156C1089.86 754.577 1088.74 755.704 1087.24 756.537C1085.76 757.361 1083.89 757.773 1081.63 757.773H1074.5V754.051H1081.23C1082.66 754.051 1083.82 753.805 1084.71 753.312C1085.6 752.811 1086.26 752.129 1086.67 751.267C1087.09 750.405 1087.3 749.425 1087.3 748.327C1087.3 747.228 1087.09 746.253 1086.67 745.401C1086.26 744.548 1085.6 743.881 1084.7 743.398C1083.81 742.915 1082.64 742.673 1081.18 742.673H1075.67V768H1071.28ZM1095.64 768V746.182H1099.75V749.648H1099.97C1100.37 748.473 1101.07 747.55 1102.08 746.878C1103.09 746.196 1104.24 745.855 1105.51 745.855C1105.78 745.855 1106.09 745.865 1106.45 745.884C1106.82 745.902 1107.11 745.926 1107.32 745.955V750.017C1107.15 749.97 1106.84 749.918 1106.41 749.861C1105.97 749.795 1105.54 749.761 1105.1 749.761C1104.1 749.761 1103.2 749.974 1102.42 750.401C1101.64 750.817 1101.03 751.4 1100.57 752.148C1100.12 752.886 1099.89 753.729 1099.89 754.676V768H1095.64ZM1118.52 768.44C1116.48 768.44 1114.69 767.972 1113.17 767.034C1111.64 766.097 1110.46 764.785 1109.62 763.099C1108.77 761.414 1108.35 759.444 1108.35 757.19C1108.35 754.927 1108.77 752.948 1109.62 751.253C1110.46 749.558 1111.64 748.241 1113.17 747.304C1114.69 746.366 1116.48 745.898 1118.52 745.898C1120.57 745.898 1122.35 746.366 1123.88 747.304C1125.4 748.241 1126.59 749.558 1127.43 751.253C1128.27 752.948 1128.69 754.927 1128.69 757.19C1128.69 759.444 1128.27 761.414 1127.43 763.099C1126.59 764.785 1125.4 766.097 1123.88 767.034C1122.35 767.972 1120.57 768.44 1118.52 768.44ZM1118.54 764.875C1119.86 764.875 1120.96 764.525 1121.83 763.824C1122.7 763.123 1123.35 762.19 1123.76 761.026C1124.19 759.861 1124.4 758.578 1124.4 757.176C1124.4 755.784 1124.19 754.506 1123.76 753.341C1123.35 752.167 1122.7 751.224 1121.83 750.514C1120.96 749.804 1119.86 749.449 1118.54 749.449C1117.2 749.449 1116.09 749.804 1115.21 750.514C1114.34 751.224 1113.69 752.167 1113.27 753.341C1112.85 754.506 1112.64 755.784 1112.64 757.176C1112.64 758.578 1112.85 759.861 1113.27 761.026C1113.69 762.19 1114.34 763.123 1115.21 763.824C1116.09 764.525 1117.2 764.875 1118.54 764.875ZM1140.72 768.426C1138.96 768.426 1137.39 767.976 1136.01 767.077C1134.63 766.168 1133.55 764.875 1132.77 763.199C1131.99 761.513 1131.6 759.491 1131.6 757.134C1131.6 754.776 1132 752.759 1132.78 751.082C1133.58 749.406 1134.67 748.123 1136.05 747.233C1137.43 746.343 1139 745.898 1140.75 745.898C1142.1 745.898 1143.19 746.125 1144.02 746.58C1144.85 747.025 1145.49 747.545 1145.95 748.142C1146.41 748.739 1146.77 749.264 1147.03 749.719H1147.28V738.909H1151.53V768H1147.38V764.605H1147.03C1146.77 765.069 1146.4 765.599 1145.92 766.196C1145.45 766.793 1144.79 767.313 1143.96 767.759C1143.13 768.204 1142.05 768.426 1140.72 768.426ZM1141.66 764.804C1142.88 764.804 1143.91 764.482 1144.76 763.838C1145.61 763.185 1146.25 762.28 1146.69 761.125C1147.13 759.97 1147.36 758.625 1147.36 757.091C1147.36 755.576 1147.14 754.25 1146.7 753.114C1146.27 751.977 1145.63 751.092 1144.78 750.457C1143.94 749.823 1142.9 749.506 1141.66 749.506C1140.38 749.506 1139.32 749.837 1138.46 750.5C1137.61 751.163 1136.97 752.067 1136.53 753.213C1136.11 754.359 1135.89 755.652 1135.89 757.091C1135.89 758.549 1136.11 759.861 1136.55 761.026C1136.98 762.19 1137.63 763.114 1138.48 763.795C1139.34 764.468 1140.4 764.804 1141.66 764.804ZM1170.53 758.952V746.182H1174.8V768H1170.62V764.222H1170.39C1169.89 765.386 1169.09 766.357 1167.98 767.134C1166.88 767.901 1165.51 768.284 1163.87 768.284C1162.47 768.284 1161.23 767.976 1160.15 767.361C1159.08 766.736 1158.24 765.812 1157.62 764.591C1157.02 763.369 1156.71 761.859 1156.71 760.06V746.182H1160.96V759.548C1160.96 761.035 1161.37 762.219 1162.2 763.099C1163.02 763.98 1164.09 764.42 1165.41 764.42C1166.2 764.42 1166.99 764.222 1167.78 763.824C1168.57 763.426 1169.23 762.825 1169.75 762.02C1170.28 761.215 1170.54 760.192 1170.53 758.952ZM1188.81 768.44C1186.7 768.44 1184.88 767.962 1183.36 767.006C1181.84 766.04 1180.68 764.709 1179.86 763.014C1179.05 761.319 1178.64 759.378 1178.64 757.19C1178.64 754.974 1179.06 753.019 1179.89 751.324C1180.73 749.619 1181.9 748.289 1183.41 747.332C1184.93 746.376 1186.72 745.898 1188.77 745.898C1190.43 745.898 1191.9 746.205 1193.2 746.821C1194.5 747.427 1195.55 748.279 1196.34 749.378C1197.15 750.476 1197.62 751.759 1197.78 753.227H1193.64C1193.41 752.205 1192.89 751.324 1192.08 750.585C1191.27 749.847 1190.2 749.477 1188.84 749.477C1187.66 749.477 1186.62 749.79 1185.73 750.415C1184.85 751.03 1184.16 751.911 1183.67 753.057C1183.18 754.193 1182.93 755.538 1182.93 757.091C1182.93 758.682 1183.17 760.055 1183.66 761.21C1184.14 762.366 1184.82 763.26 1185.7 763.895C1186.59 764.529 1187.64 764.847 1188.84 764.847C1189.65 764.847 1190.38 764.7 1191.03 764.406C1191.69 764.103 1192.25 763.672 1192.69 763.114C1193.15 762.555 1193.46 761.883 1193.64 761.097H1197.78C1197.62 762.508 1197.16 763.767 1196.4 764.875C1195.63 765.983 1194.6 766.854 1193.32 767.489C1192.04 768.123 1190.54 768.44 1188.81 768.44ZM1211.62 746.182V749.591H1199.7V746.182H1211.62ZM1202.9 740.955H1207.15V761.594C1207.15 762.418 1207.27 763.038 1207.52 763.455C1207.76 763.862 1208.08 764.141 1208.47 764.293C1208.87 764.435 1209.3 764.506 1209.76 764.506C1210.1 764.506 1210.4 764.482 1210.66 764.435C1210.91 764.387 1211.11 764.349 1211.25 764.321L1212.02 767.83C1211.77 767.924 1211.42 768.019 1210.97 768.114C1210.51 768.218 1209.95 768.275 1209.26 768.284C1208.15 768.303 1207.11 768.104 1206.14 767.688C1205.17 767.271 1204.39 766.627 1203.8 765.756C1203.2 764.884 1202.9 763.791 1202.9 762.474V740.955ZM1218.28 768.27C1217.5 768.27 1216.84 767.995 1216.28 767.446C1215.72 766.887 1215.44 766.215 1215.44 765.429C1215.44 764.652 1215.72 763.99 1216.28 763.44C1216.84 762.882 1217.5 762.602 1218.28 762.602C1219.06 762.602 1219.73 762.882 1220.28 763.44C1220.84 763.99 1221.12 764.652 1221.12 765.429C1221.12 765.95 1220.99 766.428 1220.72 766.864C1220.47 767.29 1220.13 767.631 1219.7 767.886C1219.28 768.142 1218.8 768.27 1218.28 768.27ZM1228.89 768.27C1228.12 768.27 1227.45 767.995 1226.89 767.446C1226.33 766.887 1226.05 766.215 1226.05 765.429C1226.05 764.652 1226.33 763.99 1226.89 763.44C1227.45 762.882 1228.12 762.602 1228.89 762.602C1229.67 762.602 1230.34 762.882 1230.89 763.44C1231.45 763.99 1231.73 764.652 1231.73 765.429C1231.73 765.95 1231.6 766.428 1231.34 766.864C1231.08 767.29 1230.74 767.631 1230.31 767.886C1229.89 768.142 1229.41 768.27 1228.89 768.27ZM1239.52 768.27C1238.74 768.27 1238.07 767.995 1237.51 767.446C1236.96 766.887 1236.68 766.215 1236.68 765.429C1236.68 764.652 1236.96 763.99 1237.51 763.44C1238.07 762.882 1238.74 762.602 1239.52 762.602C1240.29 762.602 1240.96 762.882 1241.52 763.44C1242.08 763.99 1242.36 764.652 1242.36 765.429C1242.36 765.95 1242.23 766.428 1241.96 766.864C1241.7 767.29 1241.36 767.631 1240.94 767.886C1240.51 768.142 1240.04 768.27 1239.52 768.27Z" fill="black" fill-opacity="0.8"/>
<rect x="776" y="891" width="507" height="103" rx="6" fill="#FFCD29"/>
<path d="M872.831 958V928.909H883.201C885.464 928.909 887.339 929.321 888.826 930.145C890.312 930.969 891.425 932.096 892.164 933.526C892.902 934.946 893.272 936.546 893.272 938.327C893.272 940.116 892.897 941.726 892.149 943.156C891.411 944.577 890.293 945.704 888.797 946.537C887.31 947.361 885.44 947.773 883.186 947.773H876.056V944.051H882.789C884.218 944.051 885.379 943.805 886.269 943.312C887.159 942.811 887.812 942.129 888.229 941.267C888.646 940.405 888.854 939.425 888.854 938.327C888.854 937.228 888.646 936.253 888.229 935.401C887.812 934.548 887.154 933.881 886.254 933.398C885.364 932.915 884.19 932.673 882.732 932.673H877.22V958H872.831ZM897.537 928.909H902.864L912.125 951.523H912.466L921.727 928.909H927.054V958H922.878V936.949H922.608L914.029 957.957H910.563L901.983 936.935H901.713V958H897.537V928.909ZM937.74 954.023L937.527 955.571C937.385 956.707 937.144 957.891 936.803 959.122C936.471 960.363 936.126 961.513 935.766 962.574C935.415 963.634 935.127 964.477 934.899 965.102H931.888C932.011 964.515 932.182 963.72 932.399 962.716C932.617 961.722 932.83 960.609 933.039 959.378C933.247 958.147 933.403 956.892 933.507 955.614L933.649 954.023H937.74ZM951.002 932.688V928.909H973.516V932.688H964.439V958H960.064V932.688H951.002ZM1000.52 938.369H996.091C995.921 937.422 995.603 936.589 995.139 935.869C994.675 935.15 994.107 934.539 993.435 934.037C992.762 933.535 992.01 933.156 991.176 932.901C990.352 932.645 989.476 932.517 988.548 932.517C986.872 932.517 985.371 932.938 984.046 933.781C982.729 934.624 981.688 935.86 980.921 937.489C980.163 939.117 979.784 941.106 979.784 943.455C979.784 945.822 980.163 947.82 980.921 949.449C981.688 951.078 982.734 952.309 984.06 953.142C985.386 953.975 986.877 954.392 988.534 954.392C989.453 954.392 990.324 954.269 991.148 954.023C991.981 953.767 992.734 953.393 993.406 952.901C994.079 952.408 994.647 951.807 995.111 951.097C995.584 950.377 995.911 949.553 996.091 948.625L1000.52 948.639C1000.29 950.069 999.827 951.385 999.145 952.588C998.473 953.781 997.606 954.813 996.546 955.685C995.494 956.546 994.292 957.214 992.938 957.688C991.583 958.161 990.106 958.398 988.506 958.398C985.987 958.398 983.743 957.801 981.773 956.608C979.803 955.405 978.25 953.687 977.114 951.452C975.987 949.217 975.423 946.551 975.423 943.455C975.423 940.348 975.992 937.683 977.128 935.457C978.264 933.223 979.817 931.509 981.787 930.315C983.757 929.113 985.996 928.511 988.506 928.511C990.049 928.511 991.489 928.734 992.824 929.179C994.169 929.615 995.376 930.259 996.446 931.111C997.516 931.954 998.402 932.986 999.102 934.207C999.803 935.42 1000.28 936.807 1000.52 938.369ZM1020.61 958.483C1019.23 958.483 1017.98 958.227 1016.86 957.716C1015.74 957.195 1014.86 956.442 1014.2 955.457C1013.56 954.473 1013.24 953.265 1013.24 951.835C1013.24 950.604 1013.47 949.591 1013.95 948.795C1014.42 948 1015.06 947.37 1015.87 946.906C1016.67 946.442 1017.57 946.092 1018.56 945.855C1019.56 945.618 1020.57 945.438 1021.6 945.315C1022.91 945.164 1023.97 945.041 1024.79 944.946C1025.6 944.842 1026.19 944.676 1026.56 944.449C1026.93 944.222 1027.12 943.852 1027.12 943.341V943.241C1027.12 942.001 1026.76 941.04 1026.06 940.358C1025.37 939.676 1024.34 939.335 1022.97 939.335C1021.54 939.335 1020.41 939.652 1019.59 940.287C1018.77 940.912 1018.21 941.608 1017.9 942.375L1013.9 941.466C1014.38 940.14 1015.07 939.07 1015.98 938.256C1016.9 937.432 1017.95 936.835 1019.15 936.466C1020.34 936.087 1021.59 935.898 1022.91 935.898C1023.78 935.898 1024.71 936.002 1025.68 936.21C1026.67 936.409 1027.58 936.778 1028.44 937.318C1029.3 937.858 1030 938.63 1030.55 939.634C1031.1 940.628 1031.38 941.92 1031.38 943.511V958H1027.23V955.017H1027.06C1026.78 955.566 1026.37 956.106 1025.82 956.636C1025.27 957.167 1024.57 957.607 1023.71 957.957C1022.84 958.308 1021.81 958.483 1020.61 958.483ZM1021.53 955.074C1022.71 955.074 1023.71 954.842 1024.54 954.378C1025.39 953.914 1026.03 953.308 1026.46 952.56C1026.91 951.802 1027.13 950.992 1027.13 950.131V947.318C1026.98 947.47 1026.68 947.612 1026.25 947.744C1025.82 947.867 1025.33 947.976 1024.79 948.071C1024.24 948.156 1023.7 948.237 1023.18 948.312C1022.66 948.379 1022.22 948.436 1021.87 948.483C1021.05 948.587 1020.3 948.762 1019.62 949.009C1018.94 949.255 1018.4 949.61 1018 950.074C1017.6 950.528 1017.4 951.134 1017.4 951.892C1017.4 952.943 1017.79 953.739 1018.56 954.278C1019.34 954.809 1020.33 955.074 1021.53 955.074ZM1040.4 945.045V958H1036.15V936.182H1040.23V939.733H1040.5C1041 938.578 1041.79 937.65 1042.86 936.949C1043.94 936.248 1045.3 935.898 1046.93 935.898C1048.42 935.898 1049.72 936.21 1050.84 936.835C1051.96 937.451 1052.82 938.369 1053.44 939.591C1054.06 940.812 1054.36 942.323 1054.36 944.122V958H1050.12V944.634C1050.12 943.052 1049.7 941.816 1048.88 940.926C1048.06 940.027 1046.93 939.577 1045.49 939.577C1044.5 939.577 1043.62 939.79 1042.86 940.216C1042.1 940.642 1041.5 941.267 1041.05 942.091C1040.62 942.905 1040.4 943.89 1040.4 945.045ZM1067.35 958.426C1065.59 958.426 1064.01 957.976 1062.63 957.077C1061.26 956.168 1060.18 954.875 1059.39 953.199C1058.62 951.513 1058.23 949.491 1058.23 947.134C1058.23 944.776 1058.62 942.759 1059.41 941.082C1060.2 939.406 1061.29 938.123 1062.67 937.233C1064.06 936.343 1065.62 935.898 1067.38 935.898C1068.73 935.898 1069.82 936.125 1070.64 936.58C1071.48 937.025 1072.12 937.545 1072.57 938.142C1073.04 938.739 1073.4 939.264 1073.65 939.719H1073.91V928.909H1078.16V958H1074.01V954.605H1073.65C1073.4 955.069 1073.03 955.599 1072.55 956.196C1072.07 956.793 1071.42 957.313 1070.59 957.759C1069.75 958.204 1068.67 958.426 1067.35 958.426ZM1068.28 954.804C1069.51 954.804 1070.54 954.482 1071.38 953.838C1072.23 953.185 1072.88 952.28 1073.31 951.125C1073.76 949.97 1073.98 948.625 1073.98 947.091C1073.98 945.576 1073.76 944.25 1073.33 943.114C1072.89 941.977 1072.25 941.092 1071.41 940.457C1070.57 939.823 1069.53 939.506 1068.28 939.506C1067.01 939.506 1065.94 939.837 1065.09 940.5C1064.24 941.163 1063.59 942.067 1063.16 943.213C1062.73 944.359 1062.52 945.652 1062.52 947.091C1062.52 948.549 1062.74 949.861 1063.17 951.026C1063.61 952.19 1064.25 953.114 1065.1 953.795C1065.96 954.468 1067.03 954.804 1068.28 954.804ZM1097.29 928.909V958H1093.04V928.909H1097.29ZM1111.53 958.44C1109.38 958.44 1107.53 957.981 1105.98 957.062C1104.43 956.134 1103.24 954.832 1102.4 953.156C1101.56 951.471 1101.15 949.496 1101.15 947.233C1101.15 944.998 1101.56 943.028 1102.4 941.324C1103.24 939.619 1104.41 938.289 1105.92 937.332C1107.43 936.376 1109.2 935.898 1111.23 935.898C1112.46 935.898 1113.65 936.101 1114.81 936.509C1115.97 936.916 1117 937.555 1117.92 938.426C1118.84 939.297 1119.56 940.429 1120.09 941.821C1120.62 943.204 1120.89 944.884 1120.89 946.864V948.369H1103.55V945.188H1116.73C1116.73 944.07 1116.5 943.08 1116.05 942.219C1115.59 941.348 1114.95 940.661 1114.13 940.159C1113.31 939.657 1112.36 939.406 1111.26 939.406C1110.07 939.406 1109.02 939.7 1108.13 940.287C1107.25 940.865 1106.57 941.622 1106.09 942.56C1105.62 943.488 1105.38 944.496 1105.38 945.585V948.071C1105.38 949.529 1105.63 950.77 1106.15 951.793C1106.67 952.815 1107.39 953.597 1108.32 954.136C1109.25 954.667 1110.33 954.932 1111.57 954.932C1112.38 954.932 1113.11 954.818 1113.77 954.591C1114.44 954.354 1115.01 954.004 1115.49 953.54C1115.98 953.076 1116.34 952.503 1116.6 951.821L1120.62 952.545C1120.3 953.729 1119.72 954.766 1118.89 955.656C1118.06 956.537 1117.03 957.223 1115.78 957.716C1114.54 958.199 1113.12 958.44 1111.53 958.44ZM1131.07 958.483C1129.69 958.483 1128.44 958.227 1127.32 957.716C1126.2 957.195 1125.32 956.442 1124.67 955.457C1124.02 954.473 1123.7 953.265 1123.7 951.835C1123.7 950.604 1123.94 949.591 1124.41 948.795C1124.88 948 1125.52 947.37 1126.33 946.906C1127.13 946.442 1128.03 946.092 1129.03 945.855C1130.02 945.618 1131.03 945.438 1132.07 945.315C1133.37 945.164 1134.43 945.041 1135.25 944.946C1136.06 944.842 1136.65 944.676 1137.02 944.449C1137.39 944.222 1137.58 943.852 1137.58 943.341V943.241C1137.58 942.001 1137.23 941.04 1136.53 940.358C1135.83 939.676 1134.8 939.335 1133.43 939.335C1132 939.335 1130.87 939.652 1130.05 940.287C1129.23 940.912 1128.67 941.608 1128.36 942.375L1124.37 941.466C1124.84 940.14 1125.53 939.07 1126.44 938.256C1127.36 937.432 1128.42 936.835 1129.61 936.466C1130.8 936.087 1132.06 935.898 1133.37 935.898C1134.24 935.898 1135.17 936.002 1136.14 936.21C1137.13 936.409 1138.05 936.778 1138.9 937.318C1139.76 937.858 1140.47 938.63 1141.01 939.634C1141.56 940.628 1141.84 941.92 1141.84 943.511V958H1137.69V955.017H1137.52C1137.25 955.566 1136.83 956.106 1136.28 956.636C1135.74 957.167 1135.03 957.607 1134.17 957.957C1133.31 958.308 1132.27 958.483 1131.07 958.483ZM1131.99 955.074C1133.17 955.074 1134.17 954.842 1135.01 954.378C1135.85 953.914 1136.49 953.308 1136.92 952.56C1137.37 951.802 1137.59 950.992 1137.59 950.131V947.318C1137.44 947.47 1137.15 947.612 1136.71 947.744C1136.28 947.867 1135.8 947.976 1135.25 948.071C1134.7 948.156 1134.16 948.237 1133.64 948.312C1133.12 948.379 1132.69 948.436 1132.34 948.483C1131.51 948.587 1130.76 948.762 1130.08 949.009C1129.4 949.255 1128.87 949.61 1128.46 950.074C1128.06 950.528 1127.86 951.134 1127.86 951.892C1127.86 952.943 1128.25 953.739 1129.03 954.278C1129.8 954.809 1130.79 955.074 1131.99 955.074ZM1154.78 958.426C1153.02 958.426 1151.45 957.976 1150.07 957.077C1148.69 956.168 1147.61 954.875 1146.83 953.199C1146.05 951.513 1145.66 949.491 1145.66 947.134C1145.66 944.776 1146.06 942.759 1146.84 941.082C1147.64 939.406 1148.73 938.123 1150.11 937.233C1151.49 936.343 1153.06 935.898 1154.81 935.898C1156.17 935.898 1157.25 936.125 1158.08 936.58C1158.91 937.025 1159.56 937.545 1160.01 938.142C1160.47 938.739 1160.83 939.264 1161.09 939.719H1161.35V928.909H1165.59V958H1161.45V954.605H1161.09C1160.83 955.069 1160.47 955.599 1159.98 956.196C1159.51 956.793 1158.86 957.313 1158.02 957.759C1157.19 958.204 1156.11 958.426 1154.78 958.426ZM1155.72 954.804C1156.94 954.804 1157.97 954.482 1158.82 953.838C1159.67 953.185 1160.31 952.28 1160.75 951.125C1161.19 949.97 1161.42 948.625 1161.42 947.091C1161.42 945.576 1161.2 944.25 1160.76 943.114C1160.33 941.977 1159.69 941.092 1158.85 940.457C1158 939.823 1156.96 939.506 1155.72 939.506C1154.44 939.506 1153.38 939.837 1152.52 940.5C1151.67 941.163 1151.03 942.067 1150.59 943.213C1150.17 944.359 1149.95 945.652 1149.95 947.091C1149.95 948.549 1150.17 949.861 1150.61 951.026C1151.04 952.19 1151.69 953.114 1152.54 953.795C1153.4 954.468 1154.46 954.804 1155.72 954.804ZM1187.12 941.509L1183.27 942.19C1183.11 941.698 1182.86 941.229 1182.51 940.784C1182.17 940.339 1181.7 939.974 1181.12 939.69C1180.53 939.406 1179.79 939.264 1178.91 939.264C1177.71 939.264 1176.71 939.534 1175.9 940.074C1175.1 940.604 1174.7 941.291 1174.7 942.134C1174.7 942.863 1174.96 943.45 1175.5 943.895C1176.04 944.34 1176.92 944.705 1178.12 944.989L1181.58 945.784C1183.59 946.248 1185.09 946.963 1186.07 947.929C1187.06 948.895 1187.55 950.15 1187.55 951.693C1187.55 953 1187.17 954.165 1186.41 955.188C1185.67 956.201 1184.62 956.996 1183.27 957.574C1181.94 958.152 1180.39 958.44 1178.63 958.44C1176.19 958.44 1174.19 957.92 1172.65 956.878C1171.11 955.827 1170.16 954.335 1169.81 952.403L1173.91 951.778C1174.17 952.848 1174.7 953.658 1175.49 954.207C1176.29 954.747 1177.32 955.017 1178.6 955.017C1179.99 955.017 1181.11 954.728 1181.94 954.151C1182.77 953.563 1183.19 952.848 1183.19 952.006C1183.19 951.324 1182.93 950.751 1182.42 950.287C1181.92 949.823 1181.15 949.473 1180.11 949.236L1176.41 948.426C1174.38 947.962 1172.87 947.223 1171.9 946.21C1170.93 945.197 1170.45 943.914 1170.45 942.361C1170.45 941.073 1170.81 939.946 1171.53 938.98C1172.25 938.014 1173.24 937.261 1174.51 936.722C1175.78 936.172 1177.23 935.898 1178.87 935.898C1181.23 935.898 1183.09 936.409 1184.44 937.432C1185.79 938.445 1186.69 939.804 1187.12 941.509Z" fill="black" fill-opacity="0.8"/>
<rect x="1537" y="530" width="266" height="91" rx="6" fill="#AFF4C6"/>
<path d="M1604.77 591V561.909H1615.14C1617.4 561.909 1619.28 562.321 1620.77 563.145C1622.25 563.969 1623.36 565.096 1624.1 566.526C1624.84 567.946 1625.21 569.546 1625.21 571.327C1625.21 573.116 1624.84 574.726 1624.09 576.156C1623.35 577.577 1622.23 578.704 1620.74 579.537C1619.25 580.361 1617.38 580.773 1615.13 580.773H1608V577.051H1614.73C1616.16 577.051 1617.32 576.805 1618.21 576.312C1619.1 575.811 1619.75 575.129 1620.17 574.267C1620.59 573.405 1620.79 572.425 1620.79 571.327C1620.79 570.228 1620.59 569.253 1620.17 568.401C1619.75 567.548 1619.09 566.881 1618.19 566.398C1617.3 565.915 1616.13 565.673 1614.67 565.673H1609.16V591H1604.77ZM1645.34 569.551C1645.19 568.206 1644.57 567.165 1643.47 566.426C1642.37 565.678 1640.99 565.304 1639.32 565.304C1638.13 565.304 1637.1 565.493 1636.22 565.872C1635.35 566.241 1634.68 566.753 1634.19 567.406C1633.72 568.05 1633.48 568.784 1633.48 569.608C1633.48 570.299 1633.64 570.896 1633.97 571.398C1634.3 571.9 1634.73 572.321 1635.26 572.662C1635.8 572.993 1636.38 573.273 1636.99 573.5C1637.61 573.718 1638.2 573.898 1638.77 574.04L1641.61 574.778C1642.54 575.006 1643.49 575.313 1644.46 575.702C1645.44 576.09 1646.34 576.601 1647.18 577.236C1648.01 577.87 1648.68 578.656 1649.19 579.594C1649.71 580.531 1649.97 581.653 1649.97 582.96C1649.97 584.608 1649.55 586.071 1648.7 587.349C1647.85 588.628 1646.63 589.636 1645.02 590.375C1643.42 591.114 1641.48 591.483 1639.21 591.483C1637.03 591.483 1635.14 591.137 1633.55 590.446C1631.96 589.755 1630.72 588.775 1629.82 587.506C1628.92 586.227 1628.42 584.712 1628.33 582.96H1632.73C1632.82 584.011 1633.16 584.887 1633.75 585.588C1634.36 586.279 1635.13 586.795 1636.07 587.136C1637.01 587.468 1638.05 587.634 1639.18 587.634C1640.42 587.634 1641.52 587.439 1642.49 587.051C1643.46 586.653 1644.23 586.104 1644.79 585.403C1645.35 584.693 1645.63 583.865 1645.63 582.918C1645.63 582.056 1645.38 581.35 1644.89 580.801C1644.41 580.252 1643.75 579.797 1642.91 579.438C1642.09 579.078 1641.16 578.76 1640.12 578.486L1636.68 577.548C1634.35 576.914 1632.5 575.981 1631.14 574.75C1629.78 573.519 1629.11 571.89 1629.11 569.864C1629.11 568.187 1629.56 566.724 1630.47 565.474C1631.38 564.224 1632.61 563.254 1634.16 562.562C1635.72 561.862 1637.47 561.511 1639.42 561.511C1641.39 561.511 1643.13 561.857 1644.63 562.548C1646.15 563.24 1647.34 564.191 1648.21 565.403C1649.08 566.606 1649.54 567.989 1649.58 569.551H1645.34ZM1656.56 591H1651.9L1662.37 561.909H1667.44L1677.91 591H1673.25L1665.03 567.193H1664.8L1656.56 591ZM1657.34 579.608H1672.46V583.301H1657.34V579.608ZM1690.94 591V561.909H1701.31C1703.56 561.909 1705.43 562.297 1706.92 563.074C1708.41 563.85 1709.53 564.925 1710.27 566.298C1711.01 567.662 1711.38 569.239 1711.38 571.028C1711.38 572.809 1711 574.376 1710.26 575.73C1709.52 577.075 1708.4 578.121 1706.9 578.869C1705.42 579.617 1703.55 579.991 1701.29 579.991H1693.44V576.213H1700.9C1702.32 576.213 1703.47 576.009 1704.36 575.602C1705.26 575.195 1705.92 574.603 1706.34 573.827C1706.75 573.05 1706.96 572.117 1706.96 571.028C1706.96 569.93 1706.75 568.978 1706.32 568.173C1705.91 567.368 1705.25 566.753 1704.35 566.327C1703.46 565.891 1702.29 565.673 1700.84 565.673H1695.33V591H1690.94ZM1705.3 577.875L1712.49 591H1707.49L1700.44 577.875H1705.3ZM1715.84 591V561.909H1726.21C1728.46 561.909 1730.33 562.297 1731.82 563.074C1733.32 563.85 1734.43 564.925 1735.17 566.298C1735.91 567.662 1736.28 569.239 1736.28 571.028C1736.28 572.809 1735.91 574.376 1735.16 575.73C1734.42 577.075 1733.3 578.121 1731.81 578.869C1730.32 579.617 1728.45 579.991 1726.19 579.991H1718.34V576.213H1725.8C1727.22 576.213 1728.37 576.009 1729.26 575.602C1730.16 575.195 1730.82 574.603 1731.24 573.827C1731.65 573.05 1731.86 572.117 1731.86 571.028C1731.86 569.93 1731.65 568.978 1731.22 568.173C1730.81 567.368 1730.15 566.753 1729.25 566.327C1728.36 565.891 1727.19 565.673 1725.74 565.673H1720.23V591H1715.84ZM1730.2 577.875L1737.39 591H1732.39L1725.34 577.875H1730.2Z" fill="black" fill-opacity="0.8"/>
<path d="M412 225C412 224.172 411.328 223.5 410.5 223.5C409.672 223.5 409 224.172 409 225H412ZM117.439 368.061C118.025 368.646 118.975 368.646 119.561 368.061L129.107 358.515C129.692 357.929 129.692 356.979 129.107 356.393C128.521 355.808 127.571 355.808 126.985 356.393L118.5 364.879L110.015 356.393C109.429 355.808 108.479 355.808 107.893 356.393C107.308 356.979 107.308 357.929 107.893 358.515L117.439 368.061ZM409 225V283.921H412V225H409ZM386.5 306.421H142.5V309.421H386.5V306.421ZM117 331.921V367H120V331.921H117ZM142.5 306.421C128.417 306.421 117 317.838 117 331.921H120C120 319.495 130.074 309.421 142.5 309.421V306.421ZM409 283.921C409 296.348 398.926 306.421 386.5 306.421V309.421C400.583 309.421 412 298.005 412 283.921H409Z" fill="#B3B3B3"/>
<path d="M1391.5 225C1391.5 224.172 1390.83 223.5 1390 223.5C1389.17 223.5 1388.5 224.172 1388.5 225H1391.5ZM1106.44 368.061C1107.03 368.646 1107.97 368.646 1108.56 368.061L1118.11 358.515C1118.69 357.929 1118.69 356.979 1118.11 356.393C1117.52 355.808 1116.57 355.808 1115.99 356.393L1107.5 364.879L1099.01 356.393C1098.43 355.808 1097.48 355.808 1096.89 356.393C1096.31 356.979 1096.31 357.929 1096.89 358.515L1106.44 368.061ZM1388.5 225V283.921H1391.5V225H1388.5ZM1366 306.421H1131.5V309.421H1366V306.421ZM1106 331.921V367H1109V331.921H1106ZM1131.5 306.421C1117.42 306.421 1106 317.838 1106 331.921H1109C1109 319.495 1119.07 309.421 1131.5 309.421V306.421ZM1388.5 283.921C1388.5 296.348 1378.43 306.421 1366 306.421V309.421C1380.08 309.421 1391.5 298.005 1391.5 283.921H1388.5Z" fill="#B3B3B3"/>
<path d="M412 225C412 224.172 411.328 223.5 410.5 223.5C409.672 223.5 409 224.172 409 225H412ZM679.939 368.061C680.525 368.646 681.475 368.646 682.061 368.061L691.607 358.515C692.192 357.929 692.192 356.979 691.607 356.393C691.021 355.808 690.071 355.808 689.485 356.393L681 364.879L672.515 356.393C671.929 355.808 670.979 355.808 670.393 356.393C669.808 356.979 669.808 357.929 670.393 358.515L679.939 368.061ZM409 225V283.921H412V225H409ZM434.5 309.421H657V306.421H434.5V309.421ZM679.5 331.921V367H682.5V331.921H679.5ZM657 309.421C669.426 309.421 679.5 319.495 679.5 331.921H682.5C682.5 317.838 671.083 306.421 657 306.421V309.421ZM409 283.921C409 298.005 420.417 309.421 434.5 309.421V306.421C422.074 306.421 412 296.348 412 283.921H409Z" fill="#B3B3B3"/>
<path d="M1391.5 225C1391.5 224.172 1390.83 223.5 1390 223.5C1389.17 223.5 1388.5 224.172 1388.5 225H1391.5ZM1668.94 368.061C1669.53 368.646 1670.47 368.646 1671.06 368.061L1680.61 358.515C1681.19 357.929 1681.19 356.979 1680.61 356.393C1680.02 355.808 1679.07 355.808 1678.49 356.393L1670 364.879L1661.51 356.393C1660.93 355.808 1659.98 355.808 1659.39 356.393C1658.81 356.979 1658.81 357.929 1659.39 358.515L1668.94 368.061ZM1388.5 225V283.921H1391.5V225H1388.5ZM1414 309.421H1646V306.421H1414V309.421ZM1668.5 331.921V367H1671.5V331.921H1668.5ZM1646 309.421C1658.43 309.421 1668.5 319.495 1668.5 331.921H1671.5C1671.5 317.838 1660.08 306.421 1646 306.421V309.421ZM1388.5 283.921C1388.5 298.005 1399.92 309.421 1414 309.421V306.421C1401.57 306.421 1391.5 296.348 1391.5 283.921H1388.5Z" fill="#B3B3B3"/>
<path d="M120 466C120 465.172 119.328 464.5 118.5 464.5C117.672 464.5 117 465.172 117 466H120ZM117.439 527.061C118.025 527.646 118.975 527.646 119.561 527.061L129.107 517.515C129.692 516.929 129.692 515.979 129.107 515.393C128.521 514.808 127.571 514.808 126.985 515.393L118.5 523.879L110.015 515.393C109.429 514.808 108.479 514.808 107.893 515.393C107.308 515.979 107.308 516.929 107.893 517.515L117.439 527.061ZM117 466V526H120V466H117Z" fill="#B3B3B3"/>
<path d="M682.5 466C682.5 465.172 681.828 464.5 681 464.5C680.172 464.5 679.5 465.172 679.5 466H682.5ZM679.939 527.061C680.525 527.646 681.475 527.646 682.061 527.061L691.607 517.515C692.192 516.929 692.192 515.979 691.607 515.393C691.021 514.808 690.071 514.808 689.485 515.393L681 523.879L672.515 515.393C671.929 514.808 670.979 514.808 670.393 515.393C669.808 515.979 669.808 516.929 670.393 517.515L679.939 527.061ZM679.5 466V526H682.5V466H679.5Z" fill="#B3B3B3"/>
<path d="M1671.5 466C1671.5 465.172 1670.83 464.5 1670 464.5C1669.17 464.5 1668.5 465.172 1668.5 466H1671.5ZM1668.94 527.061C1669.53 527.646 1670.47 527.646 1671.06 527.061L1680.61 517.515C1681.19 516.929 1681.19 515.979 1680.61 515.393C1680.02 514.808 1679.07 514.808 1678.49 515.393L1670 523.879L1661.51 515.393C1660.93 514.808 1659.98 514.808 1659.39 515.393C1658.81 515.979 1658.81 516.929 1659.39 517.515L1668.94 527.061ZM1668.5 466V526H1671.5V466H1668.5Z" fill="#B3B3B3"/>
<path d="M682.5 625C682.5 624.172 681.828 623.5 681 623.5C680.172 623.5 679.5 624.172 679.5 625H682.5ZM773.061 753.561C773.646 752.975 773.646 752.025 773.061 751.439L763.515 741.893C762.929 741.308 761.979 741.308 761.393 741.893C760.808 742.479 760.808 743.429 761.393 744.015L769.879 752.5L761.393 760.985C760.808 761.571 760.808 762.521 761.393 763.107C761.979 763.692 762.929 763.692 763.515 763.107L773.061 753.561ZM679.5 625V728.5H682.5V625H679.5ZM705 754H772V751H705V754ZM679.5 728.5C679.5 742.583 690.917 754 705 754V751C692.574 751 682.5 740.926 682.5 728.5H679.5Z" fill="#B3B3B3"/>
<path d="M1671.5 625C1671.5 624.172 1670.83 623.5 1670 623.5C1669.17 623.5 1668.5 624.172 1668.5 625H1671.5ZM1285.94 751.439C1285.35 752.025 1285.35 752.975 1285.94 753.561L1295.49 763.107C1296.07 763.692 1297.02 763.692 1297.61 763.107C1298.19 762.521 1298.19 761.571 1297.61 760.985L1289.12 752.5L1297.61 744.015C1298.19 743.429 1298.19 742.479 1297.61 741.893C1297.02 741.308 1296.07 741.308 1295.49 741.893L1285.94 751.439ZM1668.5 625V728.5H1671.5V625H1668.5ZM1646 751H1287V754H1646V751ZM1668.5 728.5C1668.5 740.926 1658.43 751 1646 751V754C1660.08 754 1671.5 742.583 1671.5 728.5H1668.5Z" fill="#B3B3B3"/>
<path d="M1031 808C1031 807.172 1030.33 806.5 1029.5 806.5C1028.67 806.5 1028 807.172 1028 808H1031ZM1028.44 888.061C1029.03 888.646 1029.97 888.646 1030.56 888.061L1040.11 878.515C1040.69 877.929 1040.69 876.979 1040.11 876.393C1039.52 875.808 1038.57 875.808 1037.99 876.393L1029.5 884.879L1021.01 876.393C1020.43 875.808 1019.48 875.808 1018.89 876.393C1018.31 876.979 1018.31 877.929 1018.89 878.515L1028.44 888.061ZM1028 808V887H1031V808H1028Z" fill="#B3B3B3"/>
</svg>
