<?xml version="1.0" encoding="UTF-8"?>
<svg id="Layer_1" data-name="Layer 1" xmlns="http://www.w3.org/2000/svg" viewBox="0 0 120 27">
  <defs>
    <style>
      .cls-1, .cls-2 {
        fill: #fff;
      }

      .cls-1, .cls-2, .cls-3 {
        stroke-width: 0px;
      }

      .cls-2 {
        fill-rule: evenodd;
      }

      .cls-3 {
        fill: #25d366;
      }
    </style>
  </defs>
  <path class="cls-3" d="m6,0h108c3.32,0,6,2.68,6,6v15c0,3.32-2.68,6-6,6H6c-3.32,0-6-2.68-6-6V6C0,2.68,2.68,0,6,0h0Zm0,0"/>
  <path class="cls-2" d="m16.34,6.59c1.82,0,3.57.72,4.88,1.98,1.34,1.28,2.11,3.01,2.18,4.86.07,1.81-.57,3.59-1.77,4.95-1.32,1.49-3.15,2.35-5.13,2.41-.07,0-.14,0-.2,0-1.07,0-2.12-.24-3.08-.7l-3.72.82h-.01s-.06-.03-.05-.06l.62-3.76c-.53-.98-.83-2.08-.87-3.2-.05-1.9.63-3.7,1.94-5.08,1.35-1.43,3.2-2.22,5.17-2.22h.04Zm-.04,1.23c-.05,0-.11,0-.17,0-3.24.09-5.79,2.8-5.7,6.03.03.99.3,1.96.8,2.8l.11.18-.46,2.55,2.52-.6.19.1c.83.43,1.77.66,2.71.66h.17c3.23-.09,5.79-2.8,5.7-6.03-.09-3.18-2.71-5.7-5.87-5.7h0Zm-2.45,2.44c.12,0,.24,0,.34.02.13.01.26.02.39.32.15.36.47,1.25.51,1.34.04.09.07.2,0,.32-.06.12-.09.19-.19.29-.09.1-.2.23-.28.31-.09.09-.19.18-.09.36.1.18.44.78.95,1.27.66.63,1.2.84,1.41.93.08.03.14.05.2.05.07,0,.14-.03.19-.09.11-.11.44-.5.59-.68.07-.09.14-.13.21-.13.06,0,.12.02.19.05.16.06,1.02.52,1.2.62.17.09.29.15.34.22.04.07.03.43-.13.84-.16.41-.9.79-1.23.81-.1,0-.19.02-.31.02-.3,0-.76-.08-1.81-.53-1.79-.77-2.87-2.66-2.96-2.78-.09-.12-.7-.99-.67-1.87.03-.88.5-1.3.67-1.47.16-.17.35-.21.47-.21h.02Zm0,0"/>
  <g>
    <path class="cls-1" d="m29.23,13.21c0-1.91,1.12-3.07,2.62-3.07.72,0,1.28.35,1.62.73l-.41.49c-.31-.33-.7-.56-1.2-.56-1.12,0-1.86.91-1.86,2.39s.71,2.42,1.83,2.42c.56,0,.99-.25,1.37-.66l.41.47c-.47.54-1.04.85-1.81.85-1.47,0-2.57-1.14-2.57-3.06Z"/>
    <path class="cls-1" d="m34.32,13.98c0-1.46.96-2.3,2.03-2.3s2.03.84,2.03,2.3-.96,2.29-2.03,2.29-2.03-.84-2.03-2.29Zm3.29,0c0-1-.51-1.69-1.26-1.69s-1.26.68-1.26,1.69.51,1.67,1.26,1.67,1.26-.67,1.26-1.67Z"/>
    <path class="cls-1" d="m39.52,11.78h.61l.06.63h.02c.42-.41.87-.74,1.47-.74.92,0,1.34.6,1.34,1.71v2.77h-.74v-2.68c0-.82-.25-1.16-.83-1.16-.45,0-.76.23-1.2.67v3.17h-.74v-4.38Z"/>
    <path class="cls-1" d="m44.44,11.78h.61l.06.63h.02c.42-.41.87-.74,1.47-.74.92,0,1.34.6,1.34,1.71v2.77h-.74v-2.68c0-.82-.25-1.16-.83-1.16-.45,0-.76.23-1.2.67v3.17h-.74v-4.38Z"/>
    <path class="cls-1" d="m49.04,13.98c0-1.42.96-2.3,1.97-2.3,1.12,0,1.75.8,1.75,2.05,0,.16-.01.31-.03.42h-2.95c.05.93.62,1.53,1.45,1.53.42,0,.77-.13,1.09-.35l.27.49c-.38.25-.85.45-1.45.45-1.17,0-2.1-.85-2.1-2.29Zm3.06-.36c0-.88-.39-1.35-1.08-1.35-.62,0-1.17.49-1.25,1.35h2.33Z"/>
    <path class="cls-1" d="m53.5,13.98c0-1.46.99-2.3,2.11-2.3.57,0,.97.24,1.28.51l-.38.49c-.25-.23-.52-.39-.87-.39-.79,0-1.37.68-1.37,1.69s.55,1.67,1.35,1.67c.4,0,.75-.19,1.03-.44l.32.5c-.39.35-.89.56-1.41.56-1.16,0-2.05-.84-2.05-2.29Z"/>
    <path class="cls-1" d="m57.97,14.81v-2.42h-.65v-.56l.68-.04.09-1.23h.62v1.23h1.19v.6h-1.19v2.43c0,.53.17.84.68.84.16,0,.36-.06.5-.12l.14.56c-.25.08-.54.16-.81.16-.93,0-1.25-.59-1.25-1.46Z"/>
    <path class="cls-1" d="m62.36,13.98c0-1.46.96-2.3,2.03-2.3s2.03.84,2.03,2.3-.96,2.29-2.03,2.29-2.03-.84-2.03-2.29Zm3.29,0c0-1-.51-1.69-1.26-1.69s-1.26.68-1.26,1.69.51,1.67,1.26,1.67,1.26-.67,1.26-1.67Z"/>
    <path class="cls-1" d="m67.56,11.78h.61l.06.63h.02c.42-.41.87-.74,1.47-.74.92,0,1.34.6,1.34,1.71v2.77h-.74v-2.68c0-.82-.25-1.16-.83-1.16-.45,0-.76.23-1.2.67v3.17h-.74v-4.38Z"/>
    <path class="cls-1" d="m73.75,10.25h.78l.62,3.22c.11.63.23,1.27.35,1.9h.04c.13-.63.27-1.27.42-1.9l.82-3.22h.68l.82,3.22c.14.62.29,1.27.43,1.9h.04c.11-.64.22-1.28.33-1.9l.62-3.22h.72l-1.22,5.91h-.9l-.89-3.55c-.1-.46-.2-.89-.28-1.35h-.04c-.09.46-.19.88-.3,1.35l-.88,3.55h-.89l-1.25-5.91Z"/>
    <path class="cls-1" d="m81.36,9.75h.74v1.75l-.03.9c.41-.4.85-.72,1.45-.72.92,0,1.34.6,1.34,1.71v2.77h-.74v-2.68c0-.82-.25-1.16-.83-1.16-.45,0-.76.23-1.2.67v3.17h-.74v-6.41Z"/>
    <path class="cls-1" d="m85.99,15.02c0-.95.82-1.43,2.69-1.63,0-.56-.19-1.11-.9-1.11-.51,0-.96.24-1.31.47l-.29-.51c.4-.26,1.02-.57,1.72-.57,1.07,0,1.52.71,1.52,1.8v2.68h-.61l-.06-.52h-.03c-.42.35-.9.63-1.45.63-.73,0-1.28-.46-1.28-1.24Zm2.69.07v-1.22c-1.47.18-1.96.54-1.96,1.09,0,.5.34.7.77.7s.77-.21,1.2-.58Z"/>
    <path class="cls-1" d="m90.8,14.81v-2.42h-.65v-.56l.68-.04.09-1.23h.62v1.23h1.19v.6h-1.19v2.43c0,.53.17.84.68.84.16,0,.36-.06.5-.12l.14.56c-.25.08-.54.16-.81.16-.93,0-1.25-.59-1.25-1.46Z"/>
    <path class="cls-1" d="m93.13,15.66l.37-.49c.38.31.77.52,1.29.52.58,0,.86-.31.86-.68,0-.45-.52-.65-1-.83-.61-.22-1.3-.53-1.3-1.26,0-.7.56-1.24,1.51-1.24.54,0,1.02.22,1.36.49l-.35.47c-.3-.22-.61-.39-1-.39-.55,0-.81.29-.81.63,0,.42.48.57.97.76.63.24,1.33.49,1.33,1.33,0,.71-.56,1.3-1.6,1.3-.62,0-1.22-.26-1.63-.61Z"/>
    <path class="cls-1" d="m98.67,10.25h.85l2,5.91h-.8l-1.03-3.3c-.21-.66-.4-1.31-.59-1.99h-.04c-.18.69-.37,1.33-.58,1.99l-1.04,3.3h-.77l2-5.91Zm-.95,3.51h2.72v.6h-2.72v-.6Z"/>
    <path class="cls-1" d="m102.29,11.78h.61l.06.5h.02c.4-.33.89-.61,1.39-.61,1.13,0,1.74.88,1.74,2.23,0,1.49-.9,2.36-1.9,2.36-.4,0-.81-.19-1.21-.51l.02.76v1.48h-.74v-6.22Zm3.06,2.13c0-.97-.33-1.61-1.15-1.61-.37,0-.74.2-1.17.6v2.29c.4.33.78.46,1.07.46.72,0,1.26-.65,1.26-1.73Z"/>
    <path class="cls-1" d="m107.28,11.78h.61l.06.5h.02c.4-.33.89-.61,1.39-.61,1.13,0,1.74.88,1.74,2.23,0,1.49-.9,2.36-1.9,2.36-.4,0-.81-.19-1.21-.51l.02.76v1.48h-.74v-6.22Zm3.06,2.13c0-.97-.33-1.61-1.15-1.61-.37,0-.74.2-1.17.6v2.29c.4.33.78.46,1.07.46.72,0,1.26-.65,1.26-1.73Z"/>
  </g>
</svg>